<svg width="48" height="48" viewBox="0 0 48 48" fill="none" xmlns="http://www.w3.org/2000/svg">
<path d="M25 8.05069V1.00003C25 0.447281 24.5527 0 24 0C23.4472 0 22.9999 0.447281 22.9999 1.00003V8.05069C12.4373 8.57681 4 17.3092 4 28C4 39.0283 12.9717 48 24 48C35.0283 48 43.9999 39.0283 43.9999 28C43.9999 17.3092 35.5626 8.57681 25 8.05069ZM17.316 11.3012C15.978 12.7732 14.8378 14.6839 13.9592 16.9194C12.7762 16.6385 11.6813 16.3051 10.6903 15.9249C12.5099 13.9212 14.7647 12.3262 17.316 11.3012ZM9.37872 17.5418C10.5531 18.0332 11.8658 18.4625 13.3078 18.8136C12.6099 21.1095 12.171 23.6707 12.0467 26.4053C9.38406 25.5728 7.51637 24.5041 6.61366 23.4173C7.17878 21.2768 8.122 19.2937 9.37872 17.5418ZM5.99997 28C5.99997 27.2302 6.06475 26.4765 6.15906 25.7317C7.55087 26.8367 9.55825 27.7714 12.0141 28.4816C12.0546 31.4409 12.4644 34.2157 13.1693 36.7002C10.3851 35.9648 8.19119 34.9566 6.96766 33.7747C6.35022 31.9592 5.99997 30.0216 5.99997 28ZM8.54294 37.1764C10.0397 37.8925 11.8662 38.4803 13.9084 38.9398C14.7941 41.2345 15.9507 43.1966 17.3161 44.6989C13.6308 43.2182 10.5557 40.5531 8.54294 37.1764ZM22.9999 45.9088C20.2933 45.4226 17.9015 42.9849 16.265 39.3915C18.3614 39.727 20.6244 39.9266 22.9999 39.9711V45.9088ZM22.9999 37.9711C20.3173 37.9161 17.7375 37.6532 15.4234 37.2082C14.6149 34.7781 14.1193 31.9837 14.028 28.9916C16.6882 29.5776 19.7366 29.9246 23 29.9843V37.9711H22.9999ZM22.9999 27.9837C19.5623 27.9194 16.539 27.5312 14.0298 26.9408C14.1204 24.1566 14.5563 21.5399 15.2736 19.2351C17.655 19.6771 20.2767 19.9276 22.9999 19.9789V27.9837V27.9837ZM22.9999 17.9794C20.5189 17.9314 18.1337 17.7152 15.9641 17.3327C17.6004 13.3499 20.1178 10.6089 22.9999 10.0912V17.9794ZM37.3092 15.9243C36.3183 16.3044 35.2236 16.6379 34.0406 16.9191C33.162 14.6837 32.0218 12.7732 30.6839 11.3012C33.235 12.3261 35.4896 13.9207 37.3092 15.9243ZM25 10.0912C27.8823 10.6088 30.3996 13.3501 32.036 17.3329C29.8664 17.7155 27.4807 17.9313 25 17.9794V10.0912ZM25 19.979C27.7231 19.9277 30.3445 19.6768 32.726 19.2346C33.4415 21.5328 33.8769 24.1415 33.9694 26.9167C31.4474 27.5173 28.4173 27.9168 25 27.9833V19.979V19.979ZM25 29.9843C28.2639 29.9245 31.3123 29.5777 33.9721 28.9919C33.8807 31.9838 33.385 34.7783 32.5766 37.2083C30.2623 37.6533 27.6825 37.916 25.0001 37.9711V29.9843H25ZM25 45.9088V39.9711C27.3753 39.9265 29.6386 39.7269 31.735 39.3912C30.0985 42.985 27.7067 45.4226 25 45.9088ZM30.684 44.6989C32.0493 43.1965 33.206 41.2344 34.0917 38.9394C36.1339 38.4799 37.9607 37.8921 39.4573 37.1759C37.4447 40.5529 34.3692 43.2182 30.684 44.6989ZM42 28C42 30.0224 41.6495 31.9607 41.0316 33.7767C39.8083 34.9576 37.6139 35.9652 34.8307 36.7002C35.5355 34.2157 35.9453 31.4412 35.9859 28.4818C38.442 27.7715 40.4492 26.8367 41.841 25.7315C41.9353 26.4763 42 27.23 42 28ZM41.3862 23.4172C40.4935 24.4778 38.6138 25.5407 35.9523 26.3767C35.8263 23.6526 35.3875 21.1012 34.692 18.8132C36.1337 18.462 37.4463 18.0325 38.6207 17.5412C39.8777 19.293 40.8212 21.2765 41.3862 23.4172Z" fill="#4C4C4C"/>
<path d="M36.7334 5.96384C37.7256 6.23824 37.7617 6.27443 38.0362 7.26659C38.1562 7.70018 38.5498 7.99999 39 7.99999C39.4502 7.99999 39.8438 7.70018 39.9638 7.26659C40.2383 6.27443 40.2744 6.23824 41.2666 5.96384C41.7002 5.84374 42 5.45018 42 4.99999C42 4.5498 41.7002 4.15624 41.2666 4.03615C40.2744 3.76174 40.2383 3.72555 39.9638 2.7334C39.7236 1.86621 38.2763 1.86621 38.0361 2.7334C37.7617 3.72555 37.7255 3.76174 36.7333 4.03615C36.2998 4.15615 36 4.54971 36 4.9999C36 5.45009 36.2998 5.84365 36.7334 5.96384Z" fill="#4C4C4C"/>
<path d="M5.26659 44.0361C4.27444 43.7617 4.23825 43.7256 3.96384 42.7334C3.72356 41.8662 2.27634 41.8662 2.03606 42.7334C1.76166 43.7256 1.72547 43.7617 0.733313 44.0361C0.299812 44.1562 0 44.5498 0 45C0 45.4502 0.299812 45.8437 0.733406 45.9638C1.72556 46.2382 1.76175 46.2744 2.03616 47.2666C2.15625 47.7002 2.54981 48 3 48C3.45019 48 3.84375 47.7002 3.96384 47.2666C4.23825 46.2744 4.27444 46.2382 5.26659 45.9638C5.70019 45.8437 6 45.4502 6 45C6 44.5498 5.70019 44.1562 5.26659 44.0361Z" fill="#4C4C4C"/>
<path d="M47.2666 11.0361C47.1309 10.999 47.0508 10.9707 47.042 10.9775C47.0263 10.9404 47.0009 10.8681 46.9639 10.7334C46.7236 9.86621 45.2764 9.86621 45.0361 10.7334C44.999 10.8682 44.9736 10.9404 44.9775 10.958C44.9404 10.9737 44.8681 10.9991 44.7334 11.0361C44.2998 11.1562 44 11.5508 44 12C44 12.4491 44.2998 12.8437 44.7334 12.9638C44.8692 13.0009 44.9434 13.0146 44.958 13.0224C44.9737 13.0595 44.9991 13.1318 45.0361 13.2665C45.1562 13.7001 45.5508 13.9999 46 13.9999C46.4491 13.9999 46.8437 13.7001 46.9638 13.2665C47.0009 13.1317 47.0263 13.0595 47.0224 13.0419C47.0595 13.0262 47.1318 13.0008 47.2665 12.9638C47.7002 12.8437 48 12.4492 48 12C48 11.5507 47.7002 11.1562 47.2666 11.0361Z" fill="#4C4C4C"/>
</svg>
