<svg width="48" height="48" viewBox="0 0 48 48" fill="none" xmlns="http://www.w3.org/2000/svg">
<g clip-path="url(#clip0_586_1123)">
<path d="M21.8177 21.7607L20.7268 1.03336C20.6959 0.453784 20.2176 0 19.637 0H6.54604C5.96544 0 5.48711 0.453887 5.45622 1.03336L4.36426 21.8182C4.36426 26.2568 7.70735 29.8913 12.0007 30.4352V35.164L8.19847 32.8827C7.86076 32.6825 7.44103 32.6739 7.09903 32.8689C6.75703 33.0629 6.54615 33.4251 6.54615 33.8181V40.3636C6.54615 40.7567 6.75713 41.1189 7.09903 41.3128C7.26625 41.4076 7.45167 41.4544 7.63699 41.4544C7.8309 41.4544 8.02583 41.4023 8.19847 41.2989L12.0007 39.0176V45.8182H7.63699C7.03399 45.8182 6.54604 46.3062 6.54604 46.9092C6.54604 47.5122 7.03399 48.0001 7.63699 48.0001H18.5461C19.1491 48.0001 19.6371 47.5122 19.6371 46.9092C19.6371 46.3062 19.1491 45.8182 18.5461 45.8182H14.1824V39.0177L17.9846 41.299C18.1573 41.4023 18.3522 41.4545 18.5461 41.4545C18.7315 41.4545 18.9169 41.4077 19.0841 41.3129C19.4261 41.119 19.637 40.7567 19.637 40.3637V33.8182C19.637 33.4251 19.426 33.063 19.0841 32.869C18.7421 32.6741 18.3223 32.6826 17.9846 32.8829L14.1824 35.1641V30.4351C18.4758 29.8909 21.8186 26.2523 21.8177 21.7607ZM8.72793 38.4365V35.7454L10.9716 37.0909L8.72793 38.4365ZM17.4552 35.7454V38.4365L15.2115 37.091L17.4552 35.7454ZM13.0915 28.3636C9.48209 28.3636 6.54604 25.4276 6.54502 21.8757L7.58156 2.18179H18.6025L19.637 21.8182C19.637 25.4276 16.7009 28.3636 13.0915 28.3636Z" fill="#4C4C4C"/>
<path d="M40.3644 45.8182H36.0007V30.4351C40.294 29.8908 43.6369 26.2523 43.636 21.7607L42.5451 1.03336C42.5143 0.453784 42.0359 0 41.4553 0H28.3644C27.7838 0 27.3055 0.453887 27.2746 1.03336L26.1826 21.8182C26.1826 26.2568 29.5257 29.8913 33.819 30.4352V45.8182H29.4553C28.8523 45.8182 28.3644 46.3062 28.3644 46.9092C28.3644 47.5122 28.8523 48.0001 29.4553 48.0001H40.3645C40.9675 48.0001 41.4554 47.5122 41.4554 46.9092C41.4553 46.3062 40.9674 45.8182 40.3644 45.8182ZM29.3999 2.18179H40.4208L40.5591 4.80692C40.3907 4.88987 40.2288 4.97526 40.0927 5.05289C39.6687 5.29477 39.3886 5.45452 38.7227 5.45452C38.0569 5.45452 37.7767 5.29466 37.3526 5.05289C36.8147 4.74607 36.1445 4.36357 34.8991 4.36357C33.6548 4.36357 32.9858 4.74607 32.4489 5.05289C32.026 5.29477 31.7457 5.45452 31.082 5.45452C30.4204 5.45452 30.1413 5.29466 29.7194 5.05391C29.5859 4.97731 29.4266 4.89304 29.2614 4.81101L29.3999 2.18179ZM29.1351 7.21207C29.5988 7.43718 30.1892 7.6363 31.082 7.6363C32.3252 7.6363 32.9943 7.2538 33.5312 6.94698C33.9541 6.70511 34.2343 6.54536 34.8991 6.54536C35.566 6.54536 35.8462 6.70521 36.2713 6.94698C36.8082 7.25482 37.4783 7.6363 38.7227 7.6363C39.6243 7.6363 40.2189 7.43452 40.6856 7.20747L40.7834 9.06168C40.5154 9.17551 40.2924 9.30273 40.0939 9.41646C39.6687 9.65834 39.3885 9.81819 38.7227 9.81819C38.0569 9.81819 37.7767 9.65834 37.3526 9.41656C36.8147 9.10975 36.1445 8.72724 34.8991 8.72724C33.6548 8.72724 32.9858 9.10975 32.4489 9.41656C32.026 9.65834 31.7457 9.81819 31.082 9.81819C30.4204 9.81819 30.1413 9.65834 29.7194 9.41759C29.5233 9.30488 29.302 9.17878 29.0375 9.06546L29.1351 7.21207ZM28.3633 21.8757L28.9114 11.4612C29.4073 11.7298 30.0369 12 31.082 12C32.3252 12 32.9943 11.6175 33.5312 11.3107C33.9541 11.0688 34.2343 10.909 34.8991 10.909C35.566 10.909 35.8462 11.0689 36.2713 11.3107C36.8082 11.6185 37.4783 12 38.7227 12C39.7779 12 40.411 11.7261 40.9095 11.4556L41.4553 21.8182C41.4553 25.4276 38.5193 28.3636 34.9099 28.3636C31.3004 28.3636 28.3644 25.4276 28.3633 21.8757Z" fill="#4C4C4C"/>
</g>
<defs>
<clipPath id="clip0_586_1123">
<rect width="48" height="48" fill="white"/>
</clipPath>
</defs>
</svg>
