<svg width="48" height="48" viewBox="0 0 48 48" fill="none" xmlns="http://www.w3.org/2000/svg">
<g clip-path="url(#clip0)">
<path d="M47 46H45.9999V38.0001C45.9999 35.794 44.206 34 41.9999 34V26.0001C41.9999 23.794 40.206 22 37.9999 22V14.0001C37.9999 11.794 36.206 10 33.9998 10H26.2409L28.9334 7.00003C29.6211 6.22659 30 5.20603 30 4.125C30 1.85063 28.3057 0 26.2226 0C25.455 0 24.7001 0.367219 24 1.07325C23.2998 0.367219 22.5449 0 21.7774 0C19.6943 0 18 1.85063 18 4.125C18 5.20603 18.3789 6.22659 19.0693 7.00294L21.759 10H14C11.7939 10 9.99994 11.7939 9.99994 14.0001V22C7.79391 22 6 23.7939 6 26V33.9999C3.79397 33.9999 1.99997 35.7938 1.99997 38V45.9999H1.00003C0.447281 46 0 46.4473 0 47C0 47.5527 0.447281 48 1.00003 48H47.0001C47.5528 48 48.0001 47.5527 48.0001 47C48 46.4473 47.5527 46 47 46ZM20.5606 5.66991C20.1993 5.26369 20.0001 4.71478 20.0001 4.125C20.0001 2.95312 20.7969 1.99997 21.7774 1.99997C22.046 1.99997 22.5703 2.31928 23.1661 3.21872C23.5372 3.77925 24.4629 3.77925 24.8341 3.21872C25.4298 2.31928 25.9542 1.99997 26.2228 1.99997C27.2032 1.99997 28.0001 2.95312 28.0001 4.125C28.0001 4.71488 27.8009 5.26369 27.4425 5.667L24 9.50297L20.5606 5.66991ZM12 14C12 12.8975 12.8975 12 14 12H33.9999C35.1024 12 35.9999 12.8975 35.9999 14V15.6506C35.6419 15.505 35.3219 15.3264 34.9804 15.1318C34.0507 14.6016 32.997 14 30.9794 14C28.9647 14 27.912 14.6016 26.9842 15.1318C26.1688 15.5977 25.4648 15.9999 23.9813 15.9999C22.497 15.9999 21.7939 15.5976 20.9784 15.1318C20.0507 14.6016 18.9989 14 16.9843 14C14.9696 14 13.9179 14.6016 12.9902 15.1318C12.6578 15.3217 12.3468 15.497 11.9999 15.6406V14H12ZM12 17.7511C12.8284 17.5256 13.4349 17.1813 13.9834 16.8682C14.7979 16.4023 15.501 16 16.9843 16C18.4677 16 19.1708 16.4024 19.9863 16.8682C20.914 17.3984 21.9658 18 23.9814 18C25.9961 18 27.0488 17.3984 27.9766 16.8682C28.792 16.4023 29.4952 16 30.9795 16C32.4668 16 33.1729 16.4024 33.9903 16.8692C34.5444 17.1852 35.1585 17.5322 36.0001 17.7574V22H12V17.7511ZM7.99997 26C7.99997 24.8975 8.89744 24 9.99994 24H11H36.9999H38C39.1025 24 39.9999 24.8975 39.9999 26V27.6413C39.5206 27.8389 38.9097 28 37.9901 28C36.5028 28 35.7978 27.5977 34.9813 27.1319C34.0516 26.6017 32.9979 26.0001 30.9793 26.0001C28.9637 26.0001 27.9119 26.6017 26.9842 27.1319C26.1687 27.5978 25.4656 28 23.9813 28C22.4969 28 21.7938 27.5977 20.9783 27.1319C20.0506 26.6017 18.9988 26.0001 16.9842 26.0001C14.9695 26.0001 13.9178 26.6017 12.9901 27.1319C12.1747 27.5978 11.4715 28 9.98812 28C9.07884 28 8.47434 27.8417 7.99988 27.6469V26H7.99997ZM7.99997 29.7526C8.54625 29.8993 9.18947 30 9.98831 30C12.003 30 13.0547 29.3984 13.9824 28.8682C14.7979 28.4023 15.501 28 16.9844 28C18.4678 28 19.1709 28.4024 19.9864 28.8682C20.9141 29.3984 21.9659 30 23.9815 30C25.9972 30 27.0489 29.3984 27.9767 28.8682C28.7921 28.4023 29.4962 28 30.9796 28C32.4679 28 33.173 28.4024 33.9904 28.8692C34.9191 29.3994 35.9728 30.0001 37.9904 30.0001C38.7979 30.0001 39.4489 29.8979 40.0002 29.7485V34H7.99997V29.7526ZM44 46H4.00003V40.0755C4.84706 40.2125 5.39259 40.522 5.99709 40.8683C6.92484 41.3984 7.97559 42 9.98831 42C12.003 42 13.0547 41.3984 13.9824 40.8682C14.7979 40.4023 15.501 40 16.9844 40C18.4678 40 19.1709 40.4024 19.9864 40.8682C20.9141 41.3984 21.9659 42 23.9815 42C25.9962 42 27.0489 41.3984 27.9767 40.8682C28.7921 40.4023 29.4953 40 30.9796 40C32.4679 40 33.173 40.4024 33.9904 40.8692C34.9191 41.3994 35.9728 42.0001 37.9904 42.0001C40.008 42.0001 41.0617 41.3985 41.9914 40.8683C42.5992 40.5215 43.1471 40.2112 44.0002 40.0746V46H44ZM44 38.0761C42.6252 38.2392 41.756 38.7001 40.999 39.1319C40.1827 39.5978 39.4776 40 37.9902 40C36.5029 40 35.7979 39.5977 34.9814 39.1319C34.0517 38.6017 32.998 38.0001 30.9794 38.0001C28.9647 38.0001 27.912 38.6017 26.9842 39.1319C26.1688 39.5978 25.4648 40 23.9813 40C22.497 40 21.7939 39.5977 20.9784 39.1319C20.0507 38.6017 18.9989 38.0001 16.9843 38.0001C14.9696 38.0001 13.9179 38.6017 12.9902 39.1319C12.1747 39.5978 11.4716 40 9.98822 40C8.50678 40 7.80459 39.5977 6.99113 39.1319C6.23616 38.7004 5.36981 38.2397 3.99994 38.0763V38.0001C4.00003 36.8975 4.8975 36 6 36H42C43.1025 36 44 36.8975 44 38V38.0761Z" fill="#263556"/>
</g>
<defs>
<clipPath id="clip0">
<rect width="48" height="48" fill="white"/>
</clipPath>
</defs>
</svg>
