<svg width="48" height="48" viewBox="0 0 48 48" fill="none" xmlns="http://www.w3.org/2000/svg">
<g clip-path="url(#clip0)">
<path d="M47 26H7.99997V7.00003C7.99997 6.44728 7.55278 6 7.00003 6H1.00003C0.447281 6 0 6.44728 0 7.00003V41.0001C0 41.5527 0.447281 42 1.00003 42H7.00003C7.55278 42 8.00006 41.5527 8.00006 41V33.9999H40V41C40 41.5527 40.4473 42 41.0001 42H47.0001C47.5528 42 48.0001 41.5527 48.0001 41V27C48 26.4473 47.5527 26 47 26ZM46 40H42V33C42 32.4473 41.5527 32 41 32H7.00003C6.44728 32 6 32.4473 6 33V40H1.99997V7.99997H6V27C6 27.5527 6.44728 28 7.00003 28H46V40Z" fill="#263556"/>
<path d="M16 24C19.3086 24 22 21.3086 22 18C22 14.6914 19.3086 12 16 12C12.6914 12 10 14.6914 10 18C10 21.3086 12.6914 24 16 24ZM16 14C18.206 14 20 15.7939 20 18C20 20.2061 18.2061 22 16 22C13.7939 22 12 20.206 12 18C12 15.794 13.7939 14 16 14Z" fill="#263556"/>
<path d="M25 24H47.0001C47.5528 24 48.0001 23.5527 48.0001 23C48 16.9345 43.0655 12 37 12H25C24.4473 12 24 12.4473 24 13V23.0001C24 23.5527 24.4473 24 25 24ZM26 14H36.9999C41.6249 14 45.4452 17.5058 45.9442 21.9999H25.9999V14H26Z" fill="#263556"/>
</g>
<defs>
<clipPath id="clip0">
<rect width="48" height="48" fill="white"/>
</clipPath>
</defs>
</svg>
