<svg width="48" height="48" viewBox="0 0 48 48" fill="none" xmlns="http://www.w3.org/2000/svg">
<path d="M43.3269 40.9976L37.1997 35.6368V11.6C37.1997 10.0536 35.9461 8.8 34.3997 8.8C34.3397 8.8 34.2773 8.8104 34.2165 8.8152C35.0858 8.1393 35.5959 7.1011 35.5997 6V3.6C35.5975 1.6127 33.987 0.0022 31.9997 0C31.7713 0.001 31.5436 0.024 31.3197 0.0688C31.2037 0.0912 31.0949 0.1312 30.9829 0.164C30.8861 0.1936 30.7877 0.2168 30.6941 0.2544C30.5567 0.3104 30.423 0.3753 30.2941 0.4488C30.2373 0.48 30.1789 0.5072 30.1237 0.5408C29.986 0.6277 29.8543 0.7236 29.7293 0.828C29.6917 0.8592 29.6541 0.888 29.6181 0.92C29.4908 1.0341 29.3719 1.157 29.2621 1.288C29.2357 1.3192 29.2093 1.3504 29.1821 1.3832C29.0734 1.5206 28.975 1.6658 28.8877 1.8176C28.8685 1.8512 28.8501 1.8856 28.8325 1.92C28.7471 2.0781 28.6741 2.2426 28.6141 2.412C28.6021 2.4456 28.5925 2.4808 28.5813 2.516C28.5238 2.6939 28.4802 2.8761 28.4509 3.0608C28.4509 3.0696 28.4461 3.0768 28.4453 3.0856C28.4445 3.0944 28.4453 3.0992 28.4453 3.1064C28.4188 3.2697 28.4035 3.4346 28.3997 3.6V6C28.4042 7.2636 29.0726 8.4318 30.1597 9.076C29.1593 9.4754 28.3615 10.2605 27.9461 11.2544C27.6024 11.1797 27.2458 11.1882 26.9061 11.2792C25.6823 10.9744 24.441 11.711 24.1221 12.9312L23.8229 14.0272C23.6248 13.7236 23.3848 13.4494 23.1101 13.2128L21.5485 11.9112C22.3407 11.233 22.7976 10.2429 22.7997 9.2V6.8C22.7986 5.7062 22.2977 4.6729 21.4397 3.9944C21.3006 3.884 21.1535 3.784 20.9997 3.6952H20.9957L20.9885 3.6912L20.9661 3.68L20.9541 3.6728L20.9085 3.648L20.8973 3.6416C20.7612 3.5678 20.6207 3.5026 20.4765 3.4464H20.4725H20.4677H20.4629C20.4165 3.4288 20.3661 3.4128 20.3093 3.3952L20.2293 3.372L20.1909 3.3608C20.0857 3.3284 19.9789 3.3017 19.8709 3.2808H19.8645C19.6483 3.2347 19.4286 3.2077 19.2077 3.2H19.1997H19.1909C18.9135 3.1973 18.6368 3.2301 18.3677 3.2976C18.2549 3.2354 18.1285 3.2019 17.9997 3.2H16.8661C14.3421 3.2041 12.1313 4.8925 11.4629 7.3264L7.62774 21.3896C7.51154 21.8159 7.76294 22.2556 8.18914 22.3718C8.25774 22.3905 8.32854 22.4 8.39974 22.4H13.7821C11.224 25.4125 9.52034 29.0558 8.84854 32.9504L7.39334 41.3184C7.04654 43.3335 6.08234 45.191 4.63414 46.6344C4.32174 46.9469 4.32184 47.4534 4.63434 47.7658C4.78434 47.9157 4.98774 48 5.19974 48H22.7997C23.2415 48 23.5997 47.6418 23.5997 47.2V24.6488C25.0884 24.2704 26.2574 23.1188 26.6581 21.636L27.2717 19.3344L27.5997 20.1536V45.2688L26.2341 46.6344C25.9217 46.9469 25.9218 47.4534 26.2343 47.7658C26.3843 47.9157 26.5877 48 26.7997 48H32.3997C32.8415 48 33.1997 47.6418 33.1997 47.2V39.36L37.9997 43.56V46.4C37.9995 46.8418 38.3574 47.2002 38.7993 47.2004C39.0368 47.2005 39.2621 47.0951 39.4141 46.9128L43.4141 42.1128C43.693 41.7791 43.6543 41.2839 43.3269 40.9976ZM22.0797 14.4424C22.579 14.853 22.8794 15.4572 22.9053 16.1032C22.9358 16.7166 22.7175 17.3163 22.2997 17.7664L21.0757 15.0736L20.0421 12.8H20.1101L22.0797 14.4424ZM18.6021 5.476L18.6821 4.8728C18.8955 4.8142 19.1177 4.7945 19.3381 4.8144C19.3725 4.8144 19.4061 4.82 19.4397 4.8248L19.2349 4.996L18.5949 5.5256L18.6021 5.476ZM18.0989 9.1936L18.2789 7.876L20.8709 5.716C21.085 6.037 21.1994 6.4142 21.1997 6.8V9.2C21.1997 10.3046 20.3043 11.2 19.1997 11.2C18.7177 11.1982 18.253 11.0201 17.8933 10.6992L18.0989 9.1936ZM9.44694 20.8L13.0069 7.7472C13.4841 6.0087 15.0633 4.8026 16.8661 4.8H17.0829L14.9013 20.8H9.44694ZM17.9053 20.8H16.5157L16.8141 18.6168L17.9053 20.8ZM15.9349 22.4H18.7053L18.7269 22.444C18.813 22.6141 18.91 22.7784 19.0173 22.936C19.0509 22.9856 19.0901 23.0304 19.1253 23.0792C19.2053 23.1824 19.2797 23.284 19.3653 23.3792C19.4117 23.4312 19.4621 23.4792 19.5117 23.5296C19.5917 23.6096 19.6717 23.6896 19.7621 23.7696C19.8173 23.816 19.8749 23.8608 19.9333 23.9064C20.0213 23.9744 20.1117 24.04 20.2053 24.1008C20.2669 24.1416 20.3301 24.1808 20.3941 24.2184C20.4909 24.2744 20.5893 24.3256 20.6909 24.3784C20.7565 24.4104 20.8229 24.4416 20.8901 24.4704C20.9965 24.5144 21.1061 24.5504 21.2157 24.588C21.2829 24.6096 21.3485 24.6336 21.4165 24.652C21.5053 24.676 21.5957 24.6928 21.6861 24.7112C18.3488 27.614 14.6491 30.0719 10.6797 32.0232C11.5258 28.398 13.3424 25.0714 15.9349 22.4ZM21.9997 46.4H6.93494C7.51834 45.5924 7.99334 44.7119 8.34774 43.7808C13.9093 41.8102 18.6936 38.1103 21.9997 33.2232V46.4ZM21.9997 30.184L21.6077 30.856C18.7073 35.8268 14.2411 39.696 8.90774 41.8584C8.92534 41.7688 8.95414 41.6832 8.96934 41.5928L10.2949 33.9712C14.5069 32.0188 18.4426 29.5185 21.9997 26.5352V30.184ZM25.1125 21.2232C24.8165 22.3147 23.8629 23.0998 22.7349 23.1808L22.6205 23.192C22.594 23.1963 22.5673 23.1989 22.5405 23.2C21.5313 23.203 20.6081 22.6322 20.1597 21.728L19.9197 21.2424L17.1997 15.8024L17.5381 13.3224L17.6021 12.8536C17.7315 12.8176 17.8653 12.7995 17.9997 12.8H18.2845L22.0717 21.1312C22.1054 21.2052 22.1505 21.2735 22.2053 21.3336C22.2125 21.3408 22.2213 21.3456 22.2285 21.3536C22.2757 21.404 22.3296 21.4479 22.3885 21.484C22.3965 21.4888 22.4053 21.4912 22.4125 21.4952C22.4733 21.5301 22.5384 21.557 22.6061 21.5752C22.6237 21.5752 22.6413 21.5752 22.6597 21.5824C22.7058 21.5924 22.7526 21.5983 22.7997 21.6C22.8133 21.6 22.8269 21.6 22.8405 21.6C22.8541 21.6 22.8557 21.6 22.8637 21.6C22.8717 21.6 22.8853 21.5936 22.8973 21.592C22.9213 21.592 22.9453 21.592 22.9693 21.5848C22.9933 21.5776 23.0069 21.5672 23.0277 21.5608C23.0759 21.546 23.1228 21.527 23.1677 21.504C23.1999 21.4875 23.2309 21.4688 23.2605 21.448C23.2998 21.419 23.3365 21.3866 23.3701 21.3512C23.3953 21.3259 23.4191 21.2992 23.4413 21.2712C23.4692 21.2306 23.4933 21.1874 23.5133 21.1424C23.5307 21.1105 23.5456 21.0773 23.5581 21.0432C23.5581 21.032 23.5685 21.0232 23.5717 21.0128L25.3437 14.516L25.5693 15.0808L26.2781 16.8504L25.1125 21.2232ZM30.7181 2.08L30.7365 2.0648C30.8402 1.9793 30.9522 1.9046 31.0709 1.8416C31.0901 1.8312 31.1085 1.82 31.1285 1.8104C31.2389 1.7567 31.354 1.7136 31.4725 1.6816C31.4997 1.6744 31.5261 1.6632 31.5525 1.656C31.6989 1.6202 31.849 1.6014 31.9997 1.6C33.1043 1.6 33.9997 2.4954 33.9997 3.6V3.6688L32.9653 2.6344C32.8153 2.4844 32.6119 2.4 32.3997 2.4H30.4133C30.5026 2.2823 30.6049 2.1749 30.7181 2.08ZM29.9997 6V4H32.0685L33.9997 5.9312V6C33.9997 7.1046 33.1043 8 31.9997 8C30.8952 8 29.9997 7.1046 29.9997 6ZM31.5997 10.4H31.8693C31.8557 10.428 31.8509 10.4592 31.8389 10.488C31.782 10.6174 31.7355 10.7512 31.6997 10.888C31.6861 10.9384 31.6725 10.9888 31.6621 11.0408C31.6224 11.2249 31.6015 11.4125 31.5997 11.6008V16.612L29.5373 12.4872C29.474 12.3608 29.3978 12.2412 29.3101 12.1304C29.6064 11.1106 30.5377 10.4067 31.5997 10.4ZM26.7805 13.7976C26.7074 13.6217 26.71 13.4235 26.7877 13.2496C26.8684 13.0683 27.0182 12.9266 27.2037 12.856C27.4479 12.7465 27.7342 12.799 27.9237 12.988C27.9977 13.0464 28.0597 13.1187 28.1061 13.2008L31.6837 20.356C31.7222 20.4305 31.7721 20.4986 31.8317 20.5576C31.8506 20.5752 31.8706 20.5915 31.8917 20.6064C31.9341 20.6432 31.9805 20.6752 32.0301 20.7016C32.056 20.7148 32.0827 20.7262 32.1101 20.736C32.1601 20.756 32.2122 20.7705 32.2653 20.7792C32.2935 20.7853 32.3221 20.7893 32.3509 20.7912C32.3677 20.7912 32.3837 20.7984 32.4013 20.7984C32.4632 20.7982 32.5249 20.7912 32.5853 20.7776C32.9453 20.6917 33.1994 20.3701 33.1997 20V11.6C33.2004 11.0728 33.5482 10.6091 34.0541 10.4608C34.1656 10.4232 34.2821 10.4027 34.3997 10.4C35.0624 10.4 35.5997 10.9373 35.5997 11.6V20.1832C35.6003 21.8489 34.2506 23.1997 32.5849 23.2004C31.3507 23.2009 30.2408 22.4494 29.7829 21.3032L27.8629 16.5032L26.7805 13.7976ZM31.5997 46.4H28.7309L28.9653 46.1656C29.1153 46.0156 29.1997 45.8122 29.1997 45.6V28H31.5997V46.4ZM32.3997 26.4H29.1997V23.3288C29.2629 23.3968 29.3317 23.4592 29.3989 23.5232C29.4309 23.5536 29.4613 23.5864 29.4941 23.616C29.6409 23.7484 29.7962 23.871 29.9589 23.9832C29.9965 24.0096 30.0389 24.032 30.0741 24.0568C30.2103 24.1442 30.351 24.2243 30.4957 24.2968C30.5413 24.32 30.5861 24.344 30.6333 24.3656C30.8149 24.4507 31.002 24.5237 31.1933 24.584C31.2237 24.5936 31.2549 24.5992 31.2853 24.608C31.4536 24.6567 31.6245 24.6957 31.7973 24.7248C31.8517 24.7344 31.9061 24.7432 31.9573 24.7512C32.1641 24.7804 32.3725 24.7959 32.5813 24.7976C32.8447 24.796 33.1076 24.772 33.3669 24.7256C33.3957 24.7208 33.4245 24.7184 33.4533 24.7128C33.6915 24.6659 33.9256 24.6001 34.1533 24.516C34.1909 24.5024 34.2285 24.4896 34.2653 24.4752C34.483 24.3895 34.6938 24.287 34.8957 24.1688C34.9317 24.148 34.9669 24.1264 35.0021 24.1048C35.2009 23.9826 35.3902 23.8457 35.5685 23.6952C35.5773 23.6872 35.5885 23.6816 35.5981 23.6736V26.4H32.3997ZM39.5997 44.1904V43.2C39.5993 42.9694 39.4999 42.75 39.3269 42.5976L33.1997 37.2368V28H35.5997V36C35.6001 36.2306 35.6995 36.45 35.8725 36.6024L41.6853 41.6872L39.5997 44.1904Z" fill="#263556"/>
</svg>
