<svg width="32" height="32" viewBox="0 0 32 32" fill="none" xmlns="http://www.w3.org/2000/svg">
<g clip-path="url(#clip0)">
<path d="M15.9999 5.33325C10.1184 5.33325 5.33325 10.1184 5.33325 15.9999C5.33325 21.8814 10.1184 26.6666 15.9999 26.6666C21.8814 26.6666 26.6666 21.8814 26.6666 15.9999C26.6666 10.1184 21.8814 5.33325 15.9999 5.33325ZM15.9999 25.3333C10.8541 25.3333 6.66663 21.1464 6.66663 15.9999C6.66663 10.8535 10.8541 6.66663 15.9999 6.66663C21.1458 6.66663 25.3333 10.8534 25.3333 15.9999C25.3333 21.1464 21.1458 25.3333 15.9999 25.3333Z" fill="black"/>
<path d="M16.6667 8.66669C16.6667 8.29819 16.3685 8 16 8C11.5886 8 8 11.5886 8 16C8 16.3685 8.29819 16.6667 8.66669 16.6667C9.03519 16.6667 9.33337 16.3685 9.33337 16C9.33337 12.3242 12.3243 9.33331 16.0001 9.33331C16.3685 9.33331 16.6667 9.03519 16.6667 8.66669Z" fill="black"/>
<path d="M15.9999 22.6667C15.6314 22.6667 15.3333 22.9649 15.3333 23.3334C15.3333 23.7019 15.6314 24.0001 15.9999 24.0001C20.4114 24.0001 24 20.4115 24 16.0001C24 15.6316 23.7018 15.3334 23.3333 15.3334C22.9648 15.3334 22.6666 15.6316 22.6666 16.0001C22.6666 19.6758 19.6758 22.6667 15.9999 22.6667Z" fill="black"/>
<path d="M31.3333 5.33325C29.4948 5.33325 28 6.82869 28 8.66656V15.9999C28 17.1028 28.8971 17.9999 30 17.9999H30.6667V25.9999C30.6667 26.3684 30.9649 26.6666 31.3334 26.6666C31.7019 26.6666 32.0001 26.3684 32.0001 25.9999V5.99994C32 5.63144 31.7018 5.33325 31.3333 5.33325ZM30.6667 16.6666H30C29.6328 16.6666 29.3333 16.3678 29.3333 15.9999V8.66663C29.3333 7.7975 29.8906 7.05594 30.6666 6.78056V16.6666H30.6667Z" fill="black"/>
<path d="M5.33331 5.99994C5.33331 5.63144 5.03512 5.33325 4.66663 5.33325C4.29819 5.33325 4 5.63144 4 5.99994V11.9999C4 12.4871 3.7245 12.8957 3.33331 13.1284V5.99994C3.33331 5.63144 3.03513 5.33325 2.66663 5.33325C2.29819 5.33325 2 5.63144 2 5.99994V13.1284C1.60881 12.8957 1.33331 12.4871 1.33331 11.9999V5.99994C1.33331 5.63144 1.03513 5.33325 0.666625 5.33325C0.298188 5.33325 0 5.63144 0 5.99994V11.9999C0 13.2391 0.853375 14.2738 2 14.5719V25.9999C2 26.3684 2.29819 26.6666 2.66669 26.6666C3.03519 26.6666 3.33337 26.3684 3.33337 25.9999V14.5719C4.48 14.2738 5.33337 13.239 5.33337 11.9999V5.99994H5.33331Z" fill="black"/>
</g>
<defs>
<clipPath id="clip0">
<rect width="32" height="32" fill="white"/>
</clipPath>
</defs>
</svg>
