<svg width="32" height="32" viewBox="0 0 32 32" fill="none" xmlns="http://www.w3.org/2000/svg">
<g clip-path="url(#clip0)">
<path d="M28.5715 0H3.4286C1.53798 0 0 1.53798 0 3.4286V28.5715C0 30.4621 1.53798 32.0001 3.4286 32.0001H28.5715C30.4621 32.0001 32.0001 30.4621 32.0001 28.5715V3.4286C32 1.53798 30.4621 0 28.5715 0V0ZM29.7143 28.5715C29.7143 29.202 29.202 29.7143 28.5715 29.7143H3.4286C2.79804 29.7143 2.28576 29.202 2.28576 28.5715V3.4286C2.28576 2.79804 2.79804 2.28576 3.4286 2.28576H28.5715C29.202 2.28576 29.7143 2.79804 29.7143 3.4286V28.5715Z" fill="#263556"/>
<path d="M17.1428 6.85718H10.2857C9.65397 6.85718 9.14282 7.36832 9.14282 8.00002V25.1429H11.4285V18.2857H17.1428C20.2934 18.2857 22.857 15.7221 22.857 12.5715C22.857 9.42078 20.2934 6.85718 17.1428 6.85718ZM17.1428 16.0001H11.4285V9.14294H17.1428C19.0334 9.14294 20.5714 10.6809 20.5714 12.5715C20.5714 14.4622 19.0335 16.0001 17.1428 16.0001Z" fill="#263556"/>
</g>
<defs>
<clipPath id="clip0">
<rect width="32" height="32" fill="white"/>
</clipPath>
</defs>
</svg>
