<svg width="48" height="48" viewBox="0 0 48 48" fill="none" xmlns="http://www.w3.org/2000/svg">
<g clip-path="url(#clip0)">
<path d="M47.5818 14.8262L45.1599 13.0958C44.7921 12.8334 44.4066 12.5962 44.0081 12.3819L43.9998 9.03912C43.9978 8.48834 43.5505 8.04209 42.9997 8.04209H39.5952C39.3762 7.6371 39.1781 7.2231 38.906 6.84191L37.1755 4.42008C36.9235 4.06758 36.4685 3.91908 36.0564 4.04902C35.6423 4.18186 35.361 4.56661 35.361 5.00114C35.361 6.44938 34.7966 7.81072 33.7731 8.83409L29.9997 12.6075V7.82909C29.9997 6.27144 30.6051 4.80857 31.7067 3.70805C32.0133 3.40139 32.0876 2.93068 31.8883 2.54396C31.6911 2.15724 31.2633 1.94537 30.8356 2.01465L27.7126 2.53515C27.2296 2.61558 26.7521 2.7279 26.2831 2.8704L23.7068 0.293968C23.3162 -0.0966871 22.6834 -0.0966871 22.2928 0.293968L19.7155 2.87124C19.25 2.73268 18.7747 2.61652 18.287 2.53515L15.1639 2.01465C14.742 1.94527 14.3084 2.15724 14.1112 2.54396C13.912 2.93068 13.9862 3.40139 14.2929 3.70805C15.3944 4.80867 15.9998 6.27154 15.9998 7.82909V12.6079L14.2264 10.834C13.2029 9.81049 12.6385 8.44915 12.6385 7.001C12.6385 6.56647 12.3572 6.18163 11.9431 6.04888C11.5349 5.91707 11.0779 6.06745 10.8239 6.41994L9.09359 8.84178C8.82135 9.22287 8.6241 9.63706 8.4051 10.042H4.99983C4.44708 10.042 3.9998 10.4892 3.9998 11.042V14.3767C3.59827 14.5921 3.21015 14.8313 2.83965 15.0956L0.417815 16.8262C0.0642856 17.0791 -0.0841201 17.5312 0.0467544 17.9453C0.179598 18.3584 0.564346 18.6396 0.999907 18.6396C2.44721 18.6396 3.80846 19.2041 4.83389 20.2276L8.93741 24.3311C10.0487 25.4424 11.5097 25.9981 12.9686 25.9981C14.3212 25.9981 15.6632 25.4989 16.7392 24.5438C18.5516 27.749 23.9999 38.119 23.9999 47.0009C23.9999 47.5536 24.4472 48.0009 24.9999 48.0009C25.5527 48.0009 25.9999 47.5536 25.9999 47.0009C25.9999 40.522 30.1084 27.0753 31.4917 22.7324C32.5273 23.5589 33.7729 23.998 35.0311 23.998C36.4901 23.998 37.951 23.4423 39.0624 22.331L43.1659 18.2275C44.1913 17.2041 45.5525 16.6396 46.9999 16.6396C47.4354 16.6396 47.8202 16.3583 47.953 15.9453C48.0837 15.5312 47.9353 15.079 47.5818 14.8262ZM22.9998 2.41505L24.2942 3.70945C23.8596 3.93642 23.4404 4.1902 23.0347 4.47154C22.6178 4.18045 22.1785 3.92358 21.7251 3.68958L22.9998 2.41505ZM5.99986 12.042H7.56688C7.44332 12.4464 7.32763 12.8489 7.25216 13.2645C6.8271 13.3419 6.41039 13.4428 5.99986 13.568V12.042ZM16.9159 21.5869L15.5858 22.917C14.1444 24.3603 11.7928 24.3603 10.3514 22.917L6.24792 18.8135C5.4608 18.0263 4.52921 17.4384 3.51155 17.0742L4.00374 16.7227C4.9178 16.0695 5.96226 15.5968 7.07151 15.3264C7.07845 15.9563 7.1122 16.5892 7.22835 17.2227C7.31816 17.7052 7.73816 18.0421 8.21075 18.0421C8.27132 18.0421 8.33188 18.0372 8.39432 18.0255C8.93731 17.9258 9.29666 17.4044 9.19709 16.8614C8.74981 14.4405 9.29281 12.005 10.7225 10.004L11.0721 9.51378C11.4373 10.5304 12.0252 11.462 12.8123 12.2482L16.2799 15.7166C16.5885 16.7418 17.148 17.6522 17.91 18.3664C18.1096 19.5514 17.7642 20.7385 16.9159 21.5869ZM18.2251 23.1058L18.3299 23.0009C19.2606 22.0702 19.7782 20.8708 19.9144 19.6057C20.5665 19.8493 21.2637 20.0009 21.9998 20.0009H22.174C22.4989 21.7924 23.2779 26.7561 23.7066 35.0728C21.7708 29.4318 19.182 24.7464 18.2251 23.1058ZM21.9998 18.0009C19.7947 18.0009 17.9998 16.207 17.9998 14.0009V7.82909C17.9998 6.61429 17.7244 5.44138 17.2049 4.38183L17.9588 4.50783C20.9315 5.00292 23.4491 6.81351 24.8689 9.47459C25.1287 9.9619 25.7342 10.1426 26.2225 9.88568C26.7107 9.6259 26.8944 9.02046 26.6346 8.53315C26.0886 7.50988 25.3953 6.60482 24.6053 5.80804C25.6634 5.15517 26.832 4.70976 28.0409 4.50773L28.7948 4.38173C28.2752 5.44129 27.9999 6.61419 27.9999 7.829V14.0008C27.9999 16.2068 26.205 18.0008 23.9999 18.0008H21.9998V18.0009ZM25.7478 35.746C25.3525 27.327 24.5906 22.1607 24.2068 19.98C25.7476 19.9263 27.1424 19.3007 28.1765 18.2945C28.4124 19.2857 28.8981 20.2293 29.6697 21.0008L29.8782 21.2093C29.2726 23.067 27.2521 29.3938 25.7478 35.746ZM42.0017 10.042L42.0057 11.5699C41.5928 11.4438 41.1737 11.3421 40.7462 11.2644C40.6707 10.8489 40.557 10.446 40.4335 10.042H42.0017ZM41.7517 16.8134L37.6481 20.9169C36.2067 22.3603 33.8552 22.3603 32.4138 20.9169L31.0837 19.5868C29.6403 18.1434 29.6403 15.7948 31.0837 14.3514L35.1872 10.2479C35.9743 9.46184 36.5622 8.53015 36.9275 7.51353L37.2771 8.00375C38.699 9.99396 39.2439 12.4168 38.8103 14.824C38.7126 15.368 39.074 15.8875 39.6169 15.9851C40.1657 16.0818 40.6793 15.7205 40.779 15.1775C40.8904 14.5587 40.9193 13.9408 40.926 13.3255C42.036 13.5958 43.0811 14.0687 43.9958 14.7224L44.488 15.074C43.4705 15.4385 42.5388 16.0264 41.7517 16.8134Z" fill="#263556"/>
</g>
<defs>
<clipPath id="clip0">
<rect width="48" height="48" fill="white"/>
</clipPath>
</defs>
</svg>
