<svg width="48" height="48" viewBox="0 0 48 48" fill="none" xmlns="http://www.w3.org/2000/svg">
<g clip-path="url(#clip0)">
<path d="M24 8C15.1778 8 8 15.1778 8 24C8 32.8223 15.1778 40.0001 24 40.0001C32.8223 40.0001 40.0001 32.8223 40.0001 24C40.0001 15.1778 32.8223 8 24 8ZM24 38C16.2813 38 10.0001 31.7197 10.0001 24C10.0001 16.2804 16.2813 10.0001 24 10.0001C31.7188 10.0001 38 16.2803 38 24C38 31.7198 31.7188 38 24 38Z" fill="#263556"/>
<path d="M25 13C25 12.4473 24.5527 12 24 12C17.3828 12 12 17.3828 12 24C12 24.5527 12.4473 25 13 25C13.5528 25 14.0001 24.5527 14.0001 24C14.0001 18.4863 18.4864 14 24.0001 14C24.5528 14 25 13.5528 25 13Z" fill="#263556"/>
<path d="M24 34C23.4473 34 23 34.4473 23 35C23 35.5528 23.4473 36 24 36C30.6172 36 36 30.6172 36 24C36 23.4473 35.5528 23 35 23C34.4473 23 34 23.4473 34 24C34.0001 29.5137 29.5138 34 24 34Z" fill="#263556"/>
<path d="M47 8C44.2421 8 42 10.2432 42 13V24C42 25.6543 43.3457 27 45 27H46V39C46 39.5528 46.4473 40.0001 47.0001 40.0001C47.5528 40.0001 48.0001 39.5528 48.0001 39V9.00003C48 8.44728 47.5527 8 47 8ZM46 25.0001H45C44.4492 25.0001 44 24.5518 44 24V13.0001C44 11.6964 44.8359 10.584 45.9999 10.171V25.0001H46Z" fill="#263556"/>
<path d="M7.99997 9.00003C7.99997 8.44728 7.55269 8 6.99994 8C6.44728 8 6 8.44728 6 9.00003V18C6 18.7307 5.58675 19.3437 4.99997 19.6928V9.00003C4.99997 8.44728 4.55269 8 3.99994 8C3.44728 8 3 8.44728 3 9.00003V19.6928C2.41322 19.3437 1.99997 18.7307 1.99997 18V9.00003C1.99997 8.44728 1.55269 8 0.999938 8C0.447281 8 0 8.44728 0 9.00003V18C0 19.8587 1.28006 21.4108 3 21.8579V39C3 39.5528 3.44728 40.0001 4.00003 40.0001C4.55278 40.0001 5.00006 39.5528 5.00006 39V21.8579C6.72 21.4107 8.00006 19.8586 8.00006 18V9.00003H7.99997Z" fill="#263556"/>
</g>
<defs>
<clipPath id="clip0">
<rect width="48" height="48" fill="white"/>
</clipPath>
</defs>
</svg>
