<svg width="48" height="48" viewBox="0 0 48 48" fill="none" xmlns="http://www.w3.org/2000/svg">
<path d="M43.7793 28.4365L42.1263 24.4025C42.6135 23.2582 43 22.0608 43 20C43 17.5381 42.4238 16.2392 41.9141 15.0938C41.4567 14.0642 41.0713 13.1314 41.0198 11.3607L44.9317 7.00003C45.6211 6.22753 46.0001 5.20612 46.0001 4.125C46.0001 1.85063 44.3048 0 42.2227 0C41.4532 0 40.6992 0.367219 40.0001 1.07231C39.3008 0.367219 38.5469 0 37.7773 0C35.6953 0 34 1.85063 34 4.125C34 5.20603 34.3789 6.22753 35.0703 7.00294L39.0244 11.41C39.0895 13.5863 39.6079 14.8322 40.0859 15.9063C40.5762 17.0098 41 17.9619 41 20.0001C41 20.5476 40.9637 21.012 40.9082 21.4297L39.6914 18.46C39.0684 16.9658 37.6192 16 36 16H16.0001C14.3809 16 12.9317 16.9658 12.3047 18.4669L8.56916 27.585C8.35775 27.0569 8.09806 26.626 7.85159 26.2256C7.37497 25.4531 7.00006 24.8419 7.00006 23.5C7.00006 22.1582 7.37506 21.5469 7.85159 20.7744C8.34613 19.9718 8.8775 19.0372 8.96572 17.421L12.9316 12.9999C13.6211 12.2274 14 11.206 14 10.1249C14 7.85053 12.3047 5.99991 10.2226 5.99991C9.45312 5.99991 8.69919 6.36712 8 7.07222C7.30081 6.36722 6.54688 6 5.77737 6C3.69537 6 2 7.85063 2 10.125C2 11.206 2.37894 12.2275 3.07034 13.0029L6.97363 17.3534C6.90856 18.4376 6.57734 19.0304 6.14844 19.7256C5.60938 20.6005 5 21.5917 5 23.4999C5 25.4081 5.60938 26.3993 6.14844 27.2743C6.55006 27.9269 6.86291 28.4822 6.95778 29.4335C6.36903 30.1302 6.00003 31.0184 6.00003 32V39.9999C6.00003 42.206 7.79497 44 10.0001 44C10.0001 46.206 11.795 48 14.0001 48H16.0001C18.2052 48 20.0001 46.2061 20.0001 44H32.0001C32 46.2061 33.7949 48 36 48H38C40.2051 48 42 46.2061 42 44C44.2051 44 46.0001 42.2061 46.0001 39.9999V32C46.0001 30.4364 45.0897 29.0941 43.7793 28.4365ZM4.56059 11.6699C4.19928 11.2637 4.00006 10.7148 4.00006 10.125C4.00006 8.95312 4.79694 7.99997 5.77737 7.99997C6.04691 7.99997 6.57228 8.31928 7.16609 9.21778C7.53716 9.77831 8.46294 9.77831 8.83409 9.21778C9.42781 8.31938 9.95328 7.99997 10.2228 7.99997C11.2032 7.99997 12 8.95312 12 10.125C12 10.7149 11.8008 11.2637 11.4415 11.667L8.00009 15.503L4.56059 11.6699ZM40.0001 9.50297L36.5606 5.67C36.1992 5.26369 36 4.71488 36 4.125C36 2.95312 36.7969 1.99997 37.7773 1.99997C38.0469 1.99997 38.5723 2.31928 39.1661 3.21778C39.5371 3.77831 40.4629 3.77831 40.8341 3.21778C41.4278 2.31938 41.9533 1.99997 42.2228 1.99997C43.2032 1.99997 44.0001 2.95312 44.0001 4.125C44.0001 4.71488 43.8009 5.26369 43.4415 5.667L40.0001 9.50297ZM14.1523 19.2314C14.4648 18.4834 15.1914 18 16 18H36C36.8086 18 37.5352 18.4834 37.8438 19.2247L41.4387 28H10.561L14.1523 19.2314ZM16.0001 46H14.0001C12.8966 46 12.0001 45.1026 12.0001 44.0001H18.0001C18 45.1026 17.1036 46 16.0001 46ZM38 46H36C34.8965 46 34.0001 45.1026 34.0001 44.0001H40.0001C40.0001 45.1026 39.1035 46 38 46ZM44 40C44 41.1025 43.1035 42 42 42H41H33H19.0001H11.0001H10.0001C8.89653 42 8.00009 41.1025 8.00009 40V32.0001C8.00009 30.8976 8.89663 30.0001 10.0001 30.0001H42C43.1036 30.0001 44 30.8976 44 32.0001V40Z" fill="#263556"/>
<path d="M14 32C11.7949 32 10 33.7939 10 36C10 38.2062 11.7949 40.0001 14 40.0001C16.2051 40.0001 18.0001 38.2061 18.0001 36C18.0001 33.794 16.2051 32 14 32ZM14 38C12.8966 38 12.0001 37.1025 12.0001 36C12.0001 34.8975 12.8966 34.0001 14 34.0001C15.1036 34.0001 16 34.8975 16 36C16.0001 37.1025 15.1036 38 14 38Z" fill="#263556"/>
<path d="M38 32C35.7949 32 34 33.7939 34 36C34 38.2062 35.7949 40.0001 38 40.0001C40.2051 40.0001 42.0001 38.2061 42.0001 36C42.0001 33.794 40.2051 32 38 32ZM38 38C36.8966 38 36.0001 37.1025 36.0001 36C36.0001 34.8975 36.8966 34.0001 38 34.0001C39.1036 34.0001 40 34.8975 40 36C40.0001 37.1025 39.1036 38 38 38Z" fill="#263556"/>
<path d="M31.0001 34H21C20.4473 34 20 34.4473 20 35C20 35.5528 20.4473 36.0001 21 36.0001H31.0001C31.5528 36.0001 32.0001 35.5528 32.0001 35C32 34.4473 31.5528 34 31.0001 34Z" fill="#263556"/>
<path d="M31.0001 38H21C20.4473 38 20 38.4473 20 39C20 39.5528 20.4473 40.0001 21 40.0001H31.0001C31.5528 40.0001 32.0001 39.5528 32.0001 39C32 38.4473 31.5528 38 31.0001 38Z" fill="#263556"/>
</svg>
