<svg width="48" height="48" viewBox="0 0 48 48" fill="none" xmlns="http://www.w3.org/2000/svg">
<path d="M38 4.00003H33.8281C33.5654 4.00003 33.3076 3.89363 33.121 3.70706L30.293 0.878906C29.7265 0.312469 28.9727 0 28.1719 0H19.8281C19.0273 0 18.2735 0.312469 17.707 0.878906L14.8789 3.70706C14.6923 3.89363 14.4345 4.00003 14.1718 4.00003H9.99994C7.79391 4.00003 6 5.79394 6 7.99997V26C6 28.2061 7.79391 30 10 30H17.1011C17.3034 31.3953 17.91 32.6504 18.8102 33.6534L12.1123 46.5391C11.8584 47.0293 12.0488 47.6329 12.5391 47.8877C12.6865 47.9639 12.8438 48 12.999 48C13.3603 48 13.709 47.8037 13.8877 47.4609L20.384 34.963C21.1699 35.4414 22.0522 35.7615 23 35.8989V47C23 47.5527 23.4473 48 24 48C24.5527 48 25 47.5527 25 47V35.8989C25.9478 35.7615 26.8301 35.4414 27.616 34.963L34.1123 47.4609C34.291 47.8037 34.6397 48 35.001 48C35.1562 48 35.3135 47.9639 35.4609 47.8877C35.9512 47.6328 36.1416 47.0293 35.8877 46.5391L29.1898 33.6534C30.0901 32.6504 30.6967 31.3953 30.8989 30H38C40.2061 30 42 28.2061 42 26V7.99997C42 5.79394 40.2061 4.00003 38 4.00003ZM24 34C21.5856 34 19.5658 32.2794 19.1012 30H28.8988C28.4342 32.2794 26.4144 34 24 34ZM40 26C40 27.1025 39.1026 27.9999 38.0001 27.9999H10C8.89753 27.9999 8.00006 27.1025 8.00006 26V7.99997C8.00006 6.89747 8.89753 6 10 6H14.1719C14.9727 6 15.7266 5.68753 16.293 5.12109L19.1212 2.29294C19.3077 2.10637 19.5655 1.99997 19.8282 1.99997H28.172C28.4347 1.99997 28.6925 2.10637 28.879 2.29294L31.7072 5.12109C32.2734 5.68753 33.0274 6 33.8281 6H38C39.1025 6 39.9999 6.89747 39.9999 7.99997V26H40Z" fill="#263556"/>
<path d="M36 11.9999C37.1045 11.9999 37.9999 11.1045 37.9999 9.99997C37.9999 8.89542 37.1045 8 36 8C34.8954 8 34 8.89542 34 9.99997C34 11.1045 34.8954 11.9999 36 11.9999Z" fill="#263556"/>
<path d="M24 8C19.5888 8 16 11.5888 16 16C16 20.4112 19.5888 24 24 24C28.4111 24 31.9999 20.4112 31.9999 16.0001C31.9999 11.5889 28.4111 8 24 8ZM24 22.0001C20.6913 22.0001 18 19.3087 18 16.0001C18 12.6914 20.6913 10.0001 24 10.0001C27.3086 10.0001 30 12.6914 30 16.0001C30 19.3086 27.3086 22.0001 24 22.0001Z" fill="#263556"/>
</svg>
