<svg width="48" height="48" viewBox="0 0 48 48" fill="none" xmlns="http://www.w3.org/2000/svg">
<g clip-path="url(#clip0)">
<path d="M21.8175 21.7607L20.7265 1.03336C20.6957 0.453784 20.2173 0 19.6367 0H6.5458C5.9652 0 5.48687 0.453887 5.45598 1.03336L4.36401 21.8182C4.36401 26.2568 7.70711 29.8913 12.0004 30.4352V35.164L8.19822 32.8828C7.86052 32.6825 7.44079 32.6739 7.09879 32.8689C6.75679 33.0629 6.5459 33.4251 6.5459 33.8181V40.3636C6.5459 40.7567 6.75689 41.1189 7.09879 41.3128C7.266 41.4076 7.45142 41.4544 7.63674 41.4544C7.83065 41.4544 8.02558 41.4023 8.19822 41.2989L12.0004 39.0176V45.8182H7.63674C7.03374 45.8182 6.5458 46.3062 6.5458 46.9092C6.5458 47.5122 7.03374 48.0001 7.63674 48.0001H18.5459C19.1489 48.0001 19.6368 47.5122 19.6368 46.9092C19.6368 46.3062 19.1489 45.8182 18.5459 45.8182H14.1822V39.0177L17.9844 41.299C18.157 41.4023 18.352 41.4545 18.5459 41.4545C18.7313 41.4545 18.9166 41.4077 19.0838 41.3129C19.4258 41.119 19.6367 40.7567 19.6367 40.3637V33.8182C19.6367 33.4251 19.4257 33.063 19.0838 32.869C18.7418 32.6741 18.3221 32.6826 17.9844 32.8829L14.1822 35.1642V30.4351C18.4755 29.8909 21.8184 26.2523 21.8175 21.7607ZM8.72769 38.4365V35.7454L10.9713 37.0909L8.72769 38.4365ZM17.4549 35.7454V38.4365L15.2113 37.091L17.4549 35.7454ZM13.0913 28.3636C9.48185 28.3636 6.5458 25.4276 6.54478 21.8757L7.58131 2.18179H18.6022L19.6367 21.8182C19.6367 25.4276 16.7007 28.3636 13.0913 28.3636Z" fill="#263556"/>
<path d="M40.3641 45.8182H36.0005V30.4351C40.2938 29.8908 43.6367 26.2523 43.6357 21.7607L42.5449 1.03336C42.514 0.453784 42.0357 0 41.4551 0H28.3642C27.7836 0 27.3052 0.453887 27.2743 1.03336L26.1824 21.8182C26.1824 26.2568 29.5255 29.8913 33.8188 30.4352V45.8182H29.4551C28.8521 45.8182 28.3642 46.3062 28.3642 46.9092C28.3642 47.5122 28.8521 48.0001 29.4551 48.0001H40.3642C40.9672 48.0001 41.4552 47.5122 41.4552 46.9092C41.4551 46.3062 40.9671 45.8182 40.3641 45.8182ZM29.3997 2.18179H40.4206L40.5589 4.80692C40.3904 4.88987 40.2285 4.97526 40.0925 5.05289C39.6685 5.29476 39.3883 5.45452 38.7224 5.45452C38.0567 5.45452 37.7764 5.29466 37.3524 5.05289C36.8144 4.74607 36.1443 4.36357 34.8989 4.36357C33.6545 4.36357 32.9856 4.74607 32.4486 5.05289C32.0257 5.29476 31.7455 5.45452 31.0818 5.45452C30.4201 5.45452 30.141 5.29466 29.7192 5.05391C29.5857 4.97731 29.4264 4.89304 29.2612 4.81101L29.3997 2.18179ZM29.1349 7.21207C29.5986 7.43718 30.1889 7.6363 31.0818 7.6363C32.325 7.6363 32.994 7.2538 33.531 6.94698C33.9539 6.70511 34.2341 6.54536 34.8989 6.54536C35.5658 6.54536 35.8459 6.70521 36.2711 6.94698C36.808 7.25482 37.4781 7.6363 38.7224 7.6363C39.6241 7.6363 40.2187 7.43452 40.6854 7.20747L40.7831 9.06168C40.5152 9.17551 40.2921 9.30273 40.0936 9.41646C39.6685 9.65834 39.3882 9.81819 38.7224 9.81819C38.0567 9.81819 37.7764 9.65834 37.3524 9.41656C36.8144 9.10975 36.1443 8.72725 34.8989 8.72725C33.6545 8.72725 32.9856 9.10975 32.4486 9.41656C32.0257 9.65834 31.7455 9.81819 31.0818 9.81819C30.4201 9.81819 30.141 9.65834 29.7192 9.41759C29.523 9.30488 29.3018 9.17878 29.0372 9.06546L29.1349 7.21207ZM28.363 21.8757L28.9111 11.4612C29.407 11.7298 30.0366 12 31.0818 12C32.325 12 32.994 11.6175 33.531 11.3107C33.9539 11.0688 34.2341 10.909 34.8989 10.909C35.5658 10.909 35.8459 11.0689 36.2711 11.3107C36.808 11.6185 37.4781 12 38.7224 12C39.7777 12 40.4108 11.7261 40.9092 11.4556L41.4551 21.8182C41.4551 25.4276 38.519 28.3636 34.9096 28.3636C31.3002 28.3636 28.3642 25.4276 28.363 21.8757Z" fill="#263556"/>
</g>
<defs>
<clipPath id="clip0">
<rect width="48" height="48" fill="white"/>
</clipPath>
</defs>
</svg>
