<svg width="48" height="48" viewBox="0 0 48 48" fill="none" xmlns="http://www.w3.org/2000/svg">
<path d="M47.5732 10.1808C47.3066 9.99326 46.9648 9.94732 46.6582 10.0607L38.5059 13.0255C37.4952 13.3927 36.6905 14.133 36.2403 15.1095C36.1559 15.2926 36.1005 15.4828 36.045 15.6727C34.6451 15.2748 32.0436 14.4436 29.4581 13.1115C25.5513 11.0984 22.5666 12.0927 20.0066 14.0453C18.7095 14.0708 16.9217 14.2242 15.1642 14.3791C14.0432 14.478 12.9837 14.569 12.1246 14.6214C12.1035 14.1054 11.9827 13.5933 11.76 13.1096C11.3098 12.133 10.5052 11.3928 9.49434 11.0256L1.34184 8.0606C1.03622 7.94829 0.692437 7.99422 0.426844 8.18069C0.159187 8.36829 0 8.67391 0 9.00007V29C0 29.5528 0.447281 30.0001 1.00003 30.0001H3.92091C5.16319 30.0001 6.31894 29.4141 7.06603 28.468C7.464 28.7706 7.93538 29.125 8.42972 29.4962C9.59672 30.3741 10.8741 31.3321 11.4346 31.8018C15.1583 34.919 19.6348 38.2852 20.5264 38.8712C21.3593 39.418 22.8593 40.0001 24 40.0001C24.4463 40.0001 25.5703 40.0001 26.3594 39.3331C27.1729 39.6524 28.0498 39.6368 28.8652 39.2774C29.6787 38.919 30.3369 38.2432 30.7197 37.4219C31.5009 37.582 32.3984 37.4648 33.2119 37.0566C33.9745 36.6748 34.5361 36.0966 34.8368 35.4209C35.5595 35.4873 36.331 35.2519 37.0214 34.7236C38.0078 33.9695 38.4595 32.856 38.3317 31.7574L40.8683 30.3541C41.6112 31.361 42.7919 31.9999 44.079 31.9999H46.9999C47.5526 31.9999 47.9999 31.5527 47.9999 30.9999V11.0001C48 10.6739 47.8408 10.3683 47.5732 10.1808ZM5.79394 26.7022C5.50294 27.4786 4.75003 28.0001 3.92091 28.0001H1.99997V10.4278L8.81053 12.9044C9.31641 13.089 9.71878 13.4591 9.94331 13.9473C10.1689 14.4356 10.1885 14.9825 9.99994 15.4854L5.79394 26.7022ZM35.8076 33.1349C35.4687 33.3947 34.9942 33.5392 34.7832 33.3283C34.7724 33.3175 34.7557 33.3185 34.7447 33.3082C34.7256 33.2905 34.7161 33.2666 34.6954 33.2501C33.9805 32.6856 30.7774 29.4083 28.7979 27.3438C28.4161 26.9445 27.7823 26.9298 27.3848 27.3136C26.9855 27.6954 26.9718 28.3282 27.3546 28.7267C27.8192 29.2116 31.5489 33.0962 33.0417 34.4547C32.9303 34.8938 32.5232 35.1649 32.3165 35.2686C31.6759 35.5899 31.0079 35.5362 30.7579 35.3038C30.7505 35.2968 30.7394 35.2972 30.7317 35.2905C30.7195 35.2796 30.7141 35.2643 30.7012 35.254C29.5019 34.296 26.4932 31.0987 25.8125 30.3585C25.4384 29.9512 24.8066 29.9258 24.3994 30.2989C23.9932 30.673 23.9658 31.3058 24.3398 31.712C24.3727 31.7476 27.3213 34.9282 28.9774 36.4056C28.8146 36.8733 28.483 37.2605 28.0576 37.4483C27.7436 37.5878 27.2526 37.6593 26.6915 37.2447C25.2554 36.0271 22.3734 32.9593 21.8066 32.3526C21.4307 31.9483 20.7959 31.9279 20.3935 32.3048C19.9902 32.6818 19.9688 33.3146 20.3457 33.7179C21.0177 34.4372 23.004 36.5424 24.5139 37.9679C24.3453 37.9884 24.1682 38.0001 24 38.0001C23.3378 38.0001 22.2002 37.5773 21.625 37.1993C20.9239 36.7383 16.5215 33.4533 12.7197 30.2696C12.1446 29.7872 10.8321 28.7999 9.63084 27.8975C8.98706 27.4143 8.39391 26.9687 7.95675 26.6324L11.7009 16.6465C12.6728 16.604 13.9686 16.492 15.3398 16.3711C16.1154 16.3027 16.8919 16.2361 17.6338 16.1783C16.4934 17.349 14.798 19.4457 15.0215 21.4111C15.124 22.3056 15.6133 23.0508 16.4385 23.5664C18.0723 24.5888 21.0968 23.7314 22.5537 21.9394C23.4941 21.8037 24.1299 21.5635 24.8232 21.2197C25.9951 22.3213 27.5663 23.6163 29.2168 24.9766C32.0899 27.3438 35.3467 30.0273 36.208 31.5322C36.6875 32.3692 36.0225 32.9708 35.8076 33.1349ZM37.5232 29.9189C36.1908 28.1365 33.3025 25.7518 30.4883 23.4327C28.6123 21.8868 26.8408 20.4268 25.707 19.2931C25.3945 18.9825 24.915 18.9122 24.5283 19.1182C23.5097 19.6641 23.0508 19.8897 21.9004 20.0049C21.5937 20.0361 21.3184 20.2061 21.1543 20.4668C20.3701 21.711 18.1904 22.3027 17.499 21.8711C17.1064 21.625 17.0303 21.375 17.0088 21.1846C16.9121 20.334 17.7734 18.8613 19.2022 17.4317C22.7403 13.8935 25.2696 13.2012 28.542 14.8887C31.6511 16.4917 34.7197 17.3981 36.0078 17.7405C36.045 17.8903 36.072 18.0416 36.1269 18.1885L40.0098 28.5433L37.5232 29.9189ZM46 30.0001H44.0791C43.25 30.0001 42.4971 29.4785 42.2061 28.7022L38 17.4864C37.8115 16.9825 37.831 16.4357 38.0566 15.9473C38.2812 15.4591 38.6836 15.0889 39.1894 14.9043L45.9999 12.4278V30.0001H46Z" fill="#263556"/>
</svg>
