<svg width="189" height="93" viewBox="0 0 189 93" fill="none" xmlns="http://www.w3.org/2000/svg">
<path d="M36.6835 84.652C32.7288 80.3747 30.6035 74.74 29.1768 69.196C28.5382 66.7147 28.0328 64.1293 27.4688 61.5613C29.5421 68.4293 31.2942 76.2373 37.9728 80.0867C38.2702 80.2587 38.5835 79.8547 38.3381 79.6133C34.6848 75.9693 32.1715 72.352 30.4888 67.4467C29.3488 64.1187 28.5022 60.7133 27.3301 57.404C31.5782 61.88 37.0022 65.2987 40.7608 70.2533C43.4942 73.856 44.1795 78.368 45.0488 82.6707C45.5955 85.3733 47.2435 88.272 47.5008 91.0093C43.4328 90.7267 39.3061 87.488 36.6835 84.652ZM15.4355 36.5307C16.4848 34.2667 18.0808 32.6267 19.7901 30.8627C22.1141 28.4653 24.3688 26.0053 26.7101 23.628C25.5888 26.8827 24.5181 30.1387 22.7301 33.1293C21.4341 35.296 19.3208 36.2973 17.3048 37.4267C19.1368 35.6067 20.7768 33.5773 21.8355 31.3147C21.9741 31.0147 21.6022 30.668 21.3515 30.9413C18.9688 33.5453 16.7915 36.2667 14.3582 38.8093C14.7328 38.06 15.0808 37.2973 15.4355 36.5307ZM52.8221 33.4973C49.7248 35.3333 46.6888 36.924 43.5381 38.1867C45.2848 36.6867 46.8595 34.8987 48.4661 33.3893C51.4288 30.6107 55.3182 28.6867 59.2608 27.548C57.3875 30.3787 56.2048 33.5653 53.5555 35.9973C51.2168 38.1453 48.6088 38.88 45.8688 39.3053C48.7581 38.0787 51.3848 36.4053 53.2835 34.0947C53.5448 33.776 53.2155 33.264 52.8221 33.4973ZM57.4448 52.1107C53.2901 53.4867 48.5915 53.152 44.6141 51.364C41.5395 49.9813 39.3528 47.328 36.9421 44.9907C40.6768 46.5173 44.3608 48.232 48.1581 49.44C48.4848 49.544 48.6542 49.0813 48.3835 48.9067C45.2208 46.8747 41.7155 45.5493 38.2208 44.2053C38.0395 44.136 37.8501 44.056 37.6648 43.9813C45.2835 44.2493 52.8328 45.188 57.4448 52.1107ZM85.5768 60.4973C92.0901 58.9173 99.5115 59.5533 105.73 61.7107C112.07 63.9107 116.965 69.9013 120.827 75.2813C113.835 75.448 106.645 75.92 100.07 73.1387C96.5328 71.6413 93.9955 68.9667 91.5821 66.0867C90.1582 64.3867 88.6968 63.3267 87.0728 62.336C88.5728 62.612 90.0821 62.94 91.6168 63.348C98.1702 65.0893 104.706 68.5413 111.458 69.3053C111.823 69.3467 111.963 68.7747 111.645 68.6187C105.271 65.4907 97.7595 63.504 90.9115 61.6973C89.2062 61.2467 87.4101 60.8267 85.5768 60.4973ZM81.2115 36.176C83.0141 32.0693 85.1501 28.14 87.9701 24.64C89.5008 22.7413 91.3501 21.248 93.3315 19.844C94.5301 18.9947 95.6781 17.8947 96.9701 17.1373C96.8021 17.552 96.6088 17.9573 96.4408 18.3387C95.7541 19.9067 95.3395 21.4413 94.9955 23.1347C93.9195 28.4493 94.2061 34.1027 91.7901 39.0667C89.4942 43.7827 84.2008 47.048 79.9515 49.7707C79.0995 50.3173 78.1821 50.8147 77.2541 51.3133C77.7648 50.7707 78.2675 50.2267 78.7555 49.6787C84.1208 43.64 89.6248 35.6133 90.8768 27.4653C90.9261 27.1413 90.4528 26.864 90.2955 27.2213C86.6021 35.5693 81.6515 45.0533 74.7595 52.0227C77.5381 47.068 79.0781 41.0333 81.2115 36.176ZM115.174 43.7613C116.174 43.6133 117.181 43.4827 118.198 43.3907C125.406 42.744 131.526 44.3333 138.255 46.6067C138.573 46.7147 138.871 46.2413 138.594 46.024C133.398 41.928 125.541 41.6093 119.218 41.9333C116.933 42.0507 114.602 42.3213 112.286 42.7307C118.118 40.072 124.255 38.0827 130.766 38.22C134.897 38.308 138.737 40.844 142.094 42.9933C143.989 44.2053 146.131 44.92 148.07 46.068C151.879 48.324 143.047 49.68 141.809 49.8333C138.327 50.264 135.001 50.7187 131.493 50.144C125.669 49.1893 120.727 45.4453 115.174 43.7613ZM143.407 12.22C140.515 15.3813 138.102 18.9573 135.331 22.244C135.471 21.6627 135.583 21.0627 135.691 20.452C136.311 16.984 137.014 14.2733 139.479 11.5773C141.389 9.49067 143.917 8.07467 146.138 6.35734C147.986 4.92801 149.847 3.27734 152.003 2.32134C151.447 3.40134 151.089 4.55201 150.785 5.86401C149.93 9.54934 148.458 12.9427 146.519 16.1853C144.806 19.052 142.314 21.0027 139.385 22.5147C138.293 23.08 137.073 23.456 135.902 23.904C139.034 20.576 142.307 16.748 144.053 12.5947C144.205 12.232 143.655 11.9493 143.407 12.22ZM175.906 29.6613C169.17 26.7253 162.499 25.404 155.922 25.2813C157.522 24.728 159.102 24.0853 160.743 23.6787C165.141 22.5893 169.642 23.2013 173.667 25.1973C176.825 26.764 179.206 29.392 181.653 31.8533C183.285 33.496 185.589 34.3467 186.898 36.2547C180.762 36.4013 174.57 36.704 168.614 34.9573C165.227 33.9627 162.117 31.948 159.214 29.9907C157.598 28.9013 156.185 27.5653 154.493 26.66C161.535 26.584 168.602 27.7587 175.562 30.48C176.034 30.664 176.37 29.8627 175.906 29.6613ZM59.0328 72.7427C60.8115 75.496 60.6781 78.6853 60.8701 81.8227C60.9821 83.6387 61.4142 85.3933 61.8661 87.144C57.6728 84.0067 54.3208 80.148 52.4141 75.144C51.5088 72.768 51.2648 70.2133 50.9208 67.7133C50.8728 67.3667 50.8261 67.0213 50.7781 66.6787C51.1301 67.2453 51.4728 67.82 51.8075 68.3947C54.0835 72.3053 55.5568 77.464 58.8155 80.6907C59.0008 80.876 59.3981 80.6907 59.2861 80.4173C57.2181 75.384 54.5288 70.332 51.6448 65.7253C51.4101 65.3493 51.1555 64.9573 50.8888 64.564C54.3475 66.3293 56.9421 69.508 59.0328 72.7427ZM48.9208 91.7147C48.9142 89.136 47.4115 87.0613 46.8381 84.6C45.7675 80.016 45.2088 75.4427 42.9488 71.2427C40.9608 67.5507 37.3928 64.928 34.2821 62.244C31.1995 59.5853 28.3221 56.8573 25.8435 53.7093C24.8555 51.6253 23.6861 49.7227 22.3155 48.044C22.0248 47.64 21.7222 47.2427 21.3982 46.8573C21.6835 47.012 21.9715 47.152 22.2555 47.3107C29.2635 51.248 35.7261 56.4573 43.1155 59.652C43.9382 60.008 44.7688 60.3267 45.6048 60.624C46.7382 61.4627 47.7382 62.4813 48.6408 63.6107C48.6542 65.808 49.5155 68.2053 49.8222 70.3373C50.2341 73.2013 51.0621 75.8347 52.3435 78.4213C54.6048 82.9853 58.5368 86.5733 62.6622 89.428C63.1928 89.7947 63.8222 89.1933 63.6862 88.64C62.7582 84.8413 62.3181 81.2427 61.9861 77.3547C61.7662 74.78 60.7115 72.756 59.2728 70.6773C57.0142 67.4107 53.7795 63.7347 49.7035 62.916C49.3381 62.4467 48.9528 61.984 48.5461 61.54C55.7115 63.472 63.1901 63.372 70.4235 61.8227C70.4621 61.848 70.5048 61.872 70.5701 61.864C74.8168 61.356 78.8355 61.316 82.8568 61.732C82.9235 61.8333 83.0128 61.928 83.1408 62.0027C84.9381 63.0587 86.7968 63.668 88.3888 65.072C89.8741 66.3827 91.0608 68.056 92.3621 69.5387C94.5475 72.032 97.3622 73.7573 100.393 75.032C107.197 77.8987 115.174 76.964 122.347 76.8453C122.906 76.836 123.401 76.1573 123.035 75.6453C118.895 69.8413 113.811 63.408 106.986 60.6773C99.9541 57.8627 90.0661 57.052 82.9888 60.1053C81.1021 59.8747 79.2008 59.78 77.3301 59.8787C80.2915 58.8573 83.1795 57.6253 85.9448 56.2C91.0528 53.5667 95.9168 50.38 100.798 47.2893C104.199 46.2467 107.578 45.2573 111.023 44.5133C115.761 45.5573 119.85 47.2627 124.367 49.2893C128.933 51.3387 133.409 52.3373 138.41 51.7493C140.098 51.5507 152.938 50.44 150.643 46.5853C149.402 44.4987 146.575 43.628 144.481 42.6867C140.525 40.9093 137.394 38.1787 133.067 37.1173C129.047 36.132 124.369 37.2187 120.462 38.2427C116.825 39.1973 113.07 40.6253 110.046 42.928C110.035 42.928 110.025 42.9267 110.014 42.9267C109.731 42.9253 109.529 43.0947 109.425 43.3133C108.054 43.6333 106.703 44.0133 105.371 44.4493C105.381 44.4427 105.39 44.436 105.401 44.4307C112.274 40.284 119.295 36.3667 126.642 33.116C134.931 29.448 143.539 27.1653 152.21 26.7373C152.249 26.9413 152.373 27.128 152.626 27.2067C155.522 28.1067 158.067 30.7467 160.611 32.38C163.358 34.1453 166.275 35.5333 169.409 36.444C175.378 38.1787 181.787 37.368 187.903 37.4213C188.275 37.4253 188.599 37.036 188.478 36.668C187.711 34.352 185.542 33.1107 183.649 31.7573C180.309 29.3693 178.051 26.0227 174.361 24.0107C167.059 20.028 159.709 22.308 152.618 25.3253C144.406 25.6653 136.349 27.788 128.497 30.92C130.322 29.4973 132.026 27.8987 133.634 26.2653C136.027 25.1933 138.613 24.5947 140.993 23.4467C143.242 22.3613 145.135 20.696 146.714 18.788C148.435 16.708 149.767 14.092 150.763 11.596C152.069 8.32667 152.271 4.13334 154.607 1.42001C155.175 0.761341 154.627 -0.130661 153.791 0.0160055C151.287 0.458672 149.218 1.95067 147.247 3.48534C144.797 5.39201 142.207 7.12134 139.806 9.08534C137.663 10.8373 136.027 13.044 135.049 15.6267C133.839 18.816 133.91 22.1773 132.481 25.34C129.695 28.1133 126.666 30.564 123.587 33.0107C112.471 38.0453 101.802 44.7907 91.7381 50.9333C82.8941 56.332 73.2848 60.2467 63.4581 61.036C65.6701 60.2867 67.7582 59.2 69.7168 57.8787C69.8875 57.904 70.0741 57.868 70.2448 57.7227C70.6168 57.408 70.9715 57.076 71.3128 56.7307C71.9928 56.2133 72.6608 55.6787 73.3088 55.1187C76.7621 52.824 80.8315 51.252 84.2661 48.9573C88.1355 46.372 91.7768 43.2373 93.8648 39.0093C96.1395 34.3987 95.9128 28.588 96.7822 23.6267C97.2368 21.0373 99.1701 18.2093 99.1315 15.6027C99.1235 15.0427 98.5621 14.5573 97.9981 14.74C94.9861 15.716 92.2341 18.4347 89.7875 20.38C86.2608 23.1813 83.7581 27.3013 81.6835 31.224C77.4595 39.2107 75.8301 49.4413 69.7595 56.3293C66.7195 58.5253 63.3648 60.22 59.6488 61.1853C53.7342 61.1587 47.7662 59.9333 41.8635 57.1493C34.6928 53.7667 28.3061 48.4973 21.3648 44.6373C19.0395 43.3453 16.5955 42.0733 14.0728 40.976C17.9928 40.82 21.8301 41.764 25.7395 42.3373C27.1061 42.5373 28.5101 42.5947 29.9155 42.568C30.9075 42.828 31.8928 43.124 32.8675 43.456C36.5048 46.752 40.2088 51.3373 44.8448 53.0733C49.2621 54.728 54.3462 54.9813 58.7621 53.1907C59.1835 53.0187 59.4568 52.5653 59.1941 52.1267C54.5608 44.4053 43.7701 40.8133 35.0808 42.908C34.6395 42.728 34.1955 42.552 33.7461 42.3853C33.7022 42.3573 33.6595 42.3267 33.6155 42.2987C33.9595 42.2573 34.3088 42.2267 34.6488 42.1787C36.3155 41.9467 38.0928 41.6347 39.8848 41.2147C44.5155 41.424 48.9795 41.0653 52.9901 38.5467C54.7461 37.444 56.3808 35.844 57.5595 34.1493C59.2075 31.78 60.0461 28.948 61.9355 26.748C62.4648 26.1307 61.9715 25.1387 61.1261 25.3573C52.1968 27.6627 45.8768 33.2613 39.3501 39.4947C39.2955 39.5467 39.2635 39.6013 39.2328 39.656C37.0968 40.2667 34.8861 40.736 32.5328 40.996C26.9422 41.616 21.1115 39.4947 15.5488 39.8347C18.5675 38.028 21.7501 36.904 23.8635 33.7907C26.4408 29.9947 27.7021 25.1693 29.3115 20.9187C29.5981 20.1627 28.5448 19.6733 28.0261 20.1707C24.5141 23.5413 21.2701 27.1693 17.8781 30.6587C15.1115 33.504 13.8901 36.7213 11.9341 40.104C8.18748 38.6653 4.29015 37.6933 0.347483 37.688C-0.076517 37.688 -0.117848 38.26 0.251485 38.3947C5.93682 40.4613 11.5101 42.2133 16.9341 44.6453C21.5181 49.1667 24.1195 53.628 25.6008 59.9627C26.8821 65.4413 27.6595 71.1067 29.9008 76.3107C32.8741 83.212 39.6342 92.6187 48.2368 92.4C48.6075 92.3893 48.9208 92.0947 48.9208 91.7147Z" fill="#263556"/>
</svg>
