<svg width="189" height="93" viewBox="0 0 189 93" fill="none" xmlns="http://www.w3.org/2000/svg">
<path d="M151.821 84.7024C155.775 80.4251 157.901 74.7904 159.327 69.2464C159.966 66.7651 160.471 64.1798 161.035 61.6118C158.962 68.4798 157.21 76.2878 150.531 80.1371C150.234 80.3091 149.921 79.9051 150.166 79.6638C153.819 76.0198 156.333 72.4024 158.015 67.4971C159.155 64.1691 160.002 60.7638 161.174 57.4544C156.926 61.9304 151.502 65.3491 147.743 70.3038C145.01 73.9064 144.325 78.4184 143.455 82.7211C142.909 85.4238 141.261 88.3224 141.003 91.0598C145.071 90.7771 149.198 87.5384 151.821 84.7024ZM173.069 36.5811C172.019 34.3171 170.423 32.6771 168.714 30.9131C166.39 28.5158 164.135 26.0558 161.794 23.6784C162.915 26.9331 163.986 30.1891 165.774 33.1798C167.07 35.3464 169.183 36.3478 171.199 37.4771C169.367 35.6571 167.727 33.6278 166.669 31.3651C166.53 31.0651 166.902 30.7184 167.153 30.9918C169.535 33.5958 171.713 36.3171 174.146 38.8598C173.771 38.1104 173.423 37.3478 173.069 36.5811ZM135.682 33.5478C138.779 35.3838 141.815 36.9744 144.966 38.2371C143.219 36.7371 141.645 34.9491 140.038 33.4398C137.075 30.6611 133.186 28.7371 129.243 27.5984C131.117 30.4291 132.299 33.6158 134.949 36.0478C137.287 38.1958 139.895 38.9304 142.635 39.3558C139.746 38.1291 137.119 36.4558 135.221 34.1451C134.959 33.8264 135.289 33.3144 135.682 33.5478ZM131.059 52.1611C135.214 53.5371 139.913 53.2024 143.89 51.4144C146.965 50.0318 149.151 47.3784 151.562 45.0411C147.827 46.5678 144.143 48.2824 140.346 49.4904C140.019 49.5944 139.85 49.1318 140.121 48.9571C143.283 46.9251 146.789 45.5998 150.283 44.2558C150.465 44.1864 150.654 44.1064 150.839 44.0318C143.221 44.2998 135.671 45.2384 131.059 52.1611ZM102.927 60.5478C96.414 58.9678 88.9927 59.6038 82.774 61.7611C76.434 63.9611 71.5393 69.9518 67.6767 75.3318C74.6687 75.4984 81.8593 75.9704 88.434 73.1891C91.9713 71.6918 94.5087 69.0171 96.922 66.1371C98.346 64.4371 99.8073 63.3771 101.431 62.3864C99.9313 62.6624 98.422 62.9904 96.8873 63.3984C90.334 65.1398 83.798 68.5918 77.046 69.3558C76.6807 69.3971 76.5407 68.8251 76.8593 68.6691C83.2327 65.5411 90.7447 63.5544 97.5927 61.7478C99.298 61.2971 101.094 60.8771 102.927 60.5478ZM107.293 36.2264C105.49 32.1198 103.354 28.1904 100.534 24.6904C99.0033 22.7918 97.154 21.2984 95.1727 19.8944C93.974 19.0451 92.826 17.9451 91.534 17.1878C91.702 17.6024 91.8953 18.0078 92.0633 18.3891C92.75 19.9571 93.1647 21.4918 93.5087 23.1851C94.5847 28.4998 94.298 34.1531 96.714 39.1171C99.01 43.8331 104.303 47.0984 108.553 49.8211C109.405 50.3678 110.322 50.8651 111.25 51.3638C110.739 50.8211 110.237 50.2771 109.749 49.7291C104.383 43.6904 98.8793 35.6638 97.6273 27.5158C97.578 27.1918 98.0513 26.9144 98.2087 27.2718C101.902 35.6198 106.853 45.1038 113.745 52.0731C110.966 47.1184 109.426 41.0838 107.293 36.2264ZM73.33 43.8118C72.33 43.6638 71.3233 43.5331 70.306 43.4411C63.098 42.7944 56.978 44.3838 50.2487 46.6571C49.9313 46.7651 49.6327 46.2918 49.91 46.0744C55.106 41.9784 62.9633 41.6598 69.286 41.9838C71.5713 42.1011 73.902 42.3718 76.218 42.7811C70.386 40.1224 64.2487 38.1331 57.738 38.2704C53.6073 38.3584 49.7673 40.8944 46.41 43.0438C44.5153 44.2558 42.3727 44.9704 40.434 46.1184C36.6247 48.3744 45.4567 49.7304 46.6953 49.8838C50.1767 50.3144 53.5033 50.7691 57.0113 50.1944C62.8353 49.2398 67.7767 45.4958 73.33 43.8118ZM45.0967 12.2704C47.9887 15.4318 50.402 19.0078 53.1727 22.2944C53.0327 21.7131 52.9207 21.1131 52.8127 20.5024C52.1927 17.0344 51.49 14.3238 49.0247 11.6278C47.1153 9.54109 44.5873 8.12509 42.366 6.40775C40.518 4.97842 38.6567 3.32775 36.5007 2.37175C37.0567 3.45175 37.4153 4.60242 37.7193 5.91442C38.574 9.59976 40.046 12.9931 41.9847 16.2358C43.698 19.1024 46.19 21.0531 49.1193 22.5651C50.2113 23.1304 51.4313 23.5064 52.602 23.9544C49.47 20.6264 46.1967 16.7984 44.4513 12.6451C44.2993 12.2824 44.8487 11.9998 45.0967 12.2704ZM12.598 29.7118C19.334 26.7758 26.0047 25.4544 32.582 25.3318C30.982 24.7784 29.402 24.1358 27.7607 23.7291C23.3633 22.6398 18.862 23.2518 14.8367 25.2478C11.6794 26.8144 9.29802 29.4424 6.85135 31.9038C5.21934 33.5464 2.91534 34.3971 1.606 36.3051C7.742 36.4518 13.934 36.7544 19.89 35.0078C23.2767 34.0131 26.3873 31.9984 29.29 30.0411C30.906 28.9518 32.3193 27.6158 34.0113 26.7104C26.9687 26.6344 19.902 27.8091 12.942 30.5304C12.47 30.7144 12.134 29.9131 12.598 29.7118ZM129.471 72.7931C127.693 75.5464 127.826 78.7358 127.634 81.8731C127.522 83.6891 127.09 85.4438 126.638 87.1944C130.831 84.0571 134.183 80.1984 136.09 75.1944C136.995 72.8184 137.239 70.2638 137.583 67.7638C137.631 67.4171 137.678 67.0718 137.726 66.7291C137.374 67.2958 137.031 67.8704 136.697 68.4451C134.421 72.3558 132.947 77.5144 129.689 80.7411C129.503 80.9264 129.106 80.7411 129.218 80.4678C131.286 75.4344 133.975 70.3824 136.859 65.7758C137.094 65.3998 137.349 65.0078 137.615 64.6144C134.157 66.3798 131.562 69.5584 129.471 72.7931ZM139.583 91.7651C139.59 89.1864 141.093 87.1118 141.666 84.6504C142.737 80.0664 143.295 75.4931 145.555 71.2931C147.543 67.6011 151.111 64.9784 154.222 62.2944C157.305 59.6358 160.182 56.9078 162.661 53.7598C163.649 51.6758 164.818 49.7731 166.189 48.0944C166.479 47.6904 166.782 47.2931 167.106 46.9078C166.821 47.0624 166.533 47.2024 166.249 47.3611C159.241 51.2984 152.778 56.5078 145.389 59.7024C144.566 60.0584 143.735 60.3771 142.899 60.6744C141.766 61.5131 140.766 62.5318 139.863 63.6611C139.85 65.8584 138.989 68.2558 138.682 70.3878C138.27 73.2518 137.442 75.8851 136.161 78.4718C133.899 83.0358 129.967 86.6237 125.842 89.4784C125.311 89.8451 124.682 89.2438 124.818 88.6904C125.746 84.8918 126.186 81.2931 126.518 77.4051C126.738 74.8304 127.793 72.8064 129.231 70.7278C131.49 67.4611 134.725 63.7851 138.801 62.9664C139.166 62.4971 139.551 62.0344 139.958 61.5904C132.793 63.5224 125.314 63.4224 118.081 61.8731C118.042 61.8984 117.999 61.9224 117.934 61.9144C113.687 61.4064 109.669 61.3664 105.647 61.7824C105.581 61.8838 105.491 61.9784 105.363 62.0531C103.566 63.1091 101.707 63.7184 100.115 65.1224C98.63 66.4331 97.4433 68.1064 96.142 69.5891C93.9567 72.0824 91.142 73.8078 88.1113 75.0824C81.3073 77.9491 73.33 77.0144 66.1567 76.8958C65.598 76.8864 65.1033 76.2078 65.4687 75.6957C69.6087 69.8917 74.6927 63.4584 81.518 60.7278C88.55 57.9131 98.438 57.1024 105.515 60.1558C107.402 59.9251 109.303 59.8304 111.174 59.9291C108.213 58.9078 105.325 57.6758 102.559 56.2504C97.4513 53.6171 92.5873 50.4304 87.706 47.3398C84.3047 46.2971 80.926 45.3078 77.4807 44.5638C72.7433 45.6078 68.654 47.3131 64.1367 49.3398C59.5713 51.3891 55.0953 52.3878 50.094 51.7998C48.406 51.6011 35.566 50.4904 37.8607 46.6358C39.102 44.5491 41.9287 43.6784 44.0233 42.7371C47.9793 40.9598 51.11 38.2291 55.4367 37.1678C59.4567 36.1824 64.1353 37.2691 68.042 38.2931C71.6793 39.2478 75.434 40.6758 78.458 42.9784C78.4687 42.9784 78.4793 42.9771 78.49 42.9771C78.7727 42.9758 78.9753 43.1451 79.0793 43.3638C80.45 43.6838 81.8007 44.0638 83.1327 44.4998C83.1233 44.4931 83.114 44.4864 83.1033 44.4811C76.23 40.3344 69.2087 36.4171 61.862 33.1664C53.5727 29.4984 44.9647 27.2158 36.294 26.7878C36.2554 26.9918 36.1313 27.1784 35.878 27.2571C32.982 28.1571 30.4367 30.7971 27.8927 32.4304C25.146 34.1958 22.2287 35.5838 19.0954 36.4944C13.126 38.2291 6.71667 37.4184 0.600676 37.4718C0.228682 37.4757 -0.0953233 37.0864 0.0260146 36.7184C0.792677 34.4024 2.962 33.1611 4.85533 31.8078C8.19534 29.4197 10.4527 26.0731 14.1433 24.0611C21.4447 20.0784 28.7953 22.3584 35.886 25.3758C44.098 25.7158 52.1553 27.8384 60.0073 30.9704C58.182 29.5478 56.478 27.9491 54.87 26.3158C52.4767 25.2438 49.8913 24.6451 47.5113 23.4971C45.262 22.4118 43.3687 20.7464 41.79 18.8384C40.0687 16.7584 38.7367 14.1424 37.7407 11.6464C36.4353 8.37709 36.2327 4.18376 33.8967 1.47042C33.3287 0.811756 33.8767 -0.0802462 34.7127 0.0664205C37.2167 0.509087 39.286 2.00109 41.2567 3.53576C43.7074 5.44242 46.2967 7.17176 48.698 9.13576C50.8407 10.8878 52.4767 13.0944 53.4553 15.6771C54.6647 18.8664 54.594 22.2278 56.0233 25.3904C58.8087 28.1638 61.838 30.6144 64.9167 33.0611C76.0327 38.0958 86.702 44.8411 96.766 50.9838C105.61 56.3824 115.219 60.2971 125.046 61.0864C122.834 60.3371 120.746 59.2504 118.787 57.9291C118.617 57.9544 118.43 57.9184 118.259 57.7731C117.887 57.4584 117.533 57.1264 117.191 56.7811C116.511 56.2638 115.843 55.7291 115.195 55.1691C111.742 52.8744 107.673 51.3024 104.238 49.0078C100.369 46.4224 96.7273 43.2878 94.6393 39.0598C92.3647 34.4491 92.5913 28.6384 91.722 23.6771C91.2673 21.0878 89.334 18.2598 89.3727 15.6531C89.3807 15.0931 89.942 14.6078 90.506 14.7904C93.518 15.7664 96.27 18.4851 98.7167 20.4304C102.243 23.2318 104.746 27.3518 106.821 31.2744C111.045 39.2611 112.674 49.4918 118.745 56.3798C121.785 58.5758 125.139 60.2704 128.855 61.2358C134.77 61.2091 140.738 59.9838 146.641 57.1998C153.811 53.8171 160.198 48.5478 167.139 44.6878C169.465 43.3958 171.909 42.1238 174.431 41.0264C170.511 40.8704 166.674 41.8144 162.765 42.3878C161.398 42.5878 159.994 42.6451 158.589 42.6184C157.597 42.8784 156.611 43.1744 155.637 43.5064C151.999 46.8024 148.295 51.3878 143.659 53.1238C139.242 54.7784 134.158 55.0318 129.742 53.2411C129.321 53.0691 129.047 52.6158 129.31 52.1771C133.943 44.4558 144.734 40.8638 153.423 42.9584C153.865 42.7784 154.309 42.6024 154.758 42.4358C154.802 42.4078 154.845 42.3771 154.889 42.3491C154.545 42.3078 154.195 42.2771 153.855 42.2291C152.189 41.9971 150.411 41.6851 148.619 41.2651C143.989 41.4744 139.525 41.1158 135.514 38.5971C133.758 37.4944 132.123 35.8944 130.945 34.1998C129.297 31.8304 128.458 28.9984 126.569 26.7984C126.039 26.1811 126.533 25.1891 127.378 25.4078C136.307 27.7131 142.627 33.3118 149.154 39.5451C149.209 39.5971 149.241 39.6518 149.271 39.7064C151.407 40.3171 153.618 40.7864 155.971 41.0464C161.562 41.6664 167.393 39.5451 172.955 39.8851C169.937 38.0784 166.754 36.9544 164.641 33.8411C162.063 30.0451 160.802 25.2198 159.193 20.9691C158.906 20.2131 159.959 19.7238 160.478 20.2211C163.99 23.5918 167.234 27.2198 170.626 30.7091C173.393 33.5544 174.614 36.7718 176.57 40.1544C180.317 38.7158 184.214 37.7438 188.157 37.7384C188.581 37.7384 188.622 38.3104 188.253 38.4451C182.567 40.5118 176.994 42.2638 171.57 44.6958C166.986 49.2171 164.385 53.6784 162.903 60.0131C161.622 65.4918 160.845 71.1571 158.603 76.3611C155.63 83.2624 148.87 92.6691 140.267 92.4504C139.897 92.4398 139.583 92.1451 139.583 91.7651Z" fill="white"/>
</svg>
