<svg width="189" height="93" viewBox="0 0 189 93" fill="none" xmlns="http://www.w3.org/2000/svg">
<path d="M36.6837 84.652C32.7291 80.3747 30.6037 74.74 29.1771 69.196C28.5384 66.7147 28.0331 64.1293 27.4691 61.5613C29.5424 68.4293 31.2944 76.2373 37.9731 80.0867C38.2704 80.2587 38.5837 79.8547 38.3384 79.6133C34.6851 75.9693 32.1717 72.352 30.4891 67.4467C29.3491 64.1187 28.5024 60.7133 27.3304 57.404C31.5784 61.88 37.0024 65.2987 40.7611 70.2533C43.4944 73.856 44.1797 78.368 45.0491 82.6707C45.5957 85.3733 47.2437 88.272 47.5011 91.0093C43.4331 90.7267 39.3064 87.488 36.6837 84.652ZM15.4357 36.5307C16.4851 34.2667 18.0811 32.6267 19.7904 30.8627C22.1144 28.4653 24.3691 26.0053 26.7104 23.628C25.5891 26.8827 24.5184 30.1387 22.7304 33.1293C21.4344 35.296 19.3211 36.2973 17.3051 37.4267C19.1371 35.6067 20.7771 33.5773 21.8357 31.3147C21.9744 31.0147 21.6024 30.668 21.3517 30.9413C18.9691 33.5453 16.7917 36.2667 14.3584 38.8093C14.7331 38.06 15.0811 37.2973 15.4357 36.5307ZM52.8224 33.4973C49.7251 35.3333 46.6891 36.924 43.5384 38.1867C45.2851 36.6867 46.8597 34.8987 48.4664 33.3893C51.4291 30.6107 55.3184 28.6867 59.2611 27.548C57.3877 30.3787 56.2051 33.5653 53.5557 35.9973C51.2171 38.1453 48.6091 38.88 45.8691 39.3053C48.7584 38.0787 51.3851 36.4053 53.2837 34.0947C53.5451 33.776 53.2157 33.264 52.8224 33.4973ZM57.4451 52.1107C53.2904 53.4867 48.5917 53.152 44.6144 51.364C41.5397 49.9813 39.3531 47.328 36.9424 44.9907C40.6771 46.5173 44.3611 48.232 48.1584 49.44C48.4851 49.544 48.6544 49.0813 48.3837 48.9067C45.2211 46.8747 41.7157 45.5493 38.2211 44.2053C38.0397 44.136 37.8504 44.056 37.6651 43.9813C45.2837 44.2493 52.8331 45.188 57.4451 52.1107ZM85.577 60.4973C92.0904 58.9174 99.5117 59.5533 105.73 61.7107C112.07 63.9107 116.965 69.9013 120.828 75.2813C113.836 75.448 106.645 75.92 100.07 73.1387C96.5331 71.6413 93.9957 68.9667 91.5824 66.0867C90.1584 64.3867 88.697 63.3267 87.073 62.336C88.573 62.612 90.0824 62.94 91.6171 63.348C98.1704 65.0893 104.706 68.5413 111.458 69.3053C111.824 69.3467 111.964 68.7747 111.645 68.6187C105.272 65.4907 97.7597 63.504 90.9117 61.6973C89.2064 61.2467 87.4104 60.8267 85.577 60.4973ZM81.2117 36.176C83.0144 32.0694 85.1504 28.14 87.9704 24.64C89.5011 22.7414 91.3504 21.248 93.3317 19.844C94.5304 18.9947 95.6784 17.8947 96.9704 17.1373C96.8024 17.552 96.6091 17.9574 96.4411 18.3387C95.7544 19.9067 95.3397 21.4413 94.9957 23.1347C93.9197 28.4493 94.2064 34.1027 91.7904 39.0667C89.4944 43.7827 84.2011 47.048 79.9517 49.7707C79.0997 50.3173 78.1824 50.8147 77.2544 51.3134C77.7651 50.7707 78.2677 50.2267 78.7557 49.6787C84.1211 43.64 89.6251 35.6134 90.8771 27.4653C90.9264 27.1413 90.4531 26.864 90.2957 27.2213C86.6024 35.5693 81.6517 45.0533 74.7597 52.0227C77.5384 47.068 79.0784 41.0333 81.2117 36.176ZM115.174 43.7613C116.174 43.6134 117.181 43.4827 118.198 43.3907C125.406 42.744 131.526 44.3333 138.256 46.6067C138.573 46.7147 138.872 46.2414 138.594 46.024C133.398 41.928 125.541 41.6093 119.218 41.9333C116.933 42.0507 114.602 42.3214 112.286 42.7307C118.118 40.072 124.256 38.0827 130.766 38.22C134.897 38.308 138.737 40.844 142.094 42.9933C143.989 44.2054 146.132 44.92 148.07 46.068C151.88 48.324 143.048 49.68 141.809 49.8334C138.328 50.264 135.001 50.7187 131.493 50.144C125.669 49.1893 120.728 45.4453 115.174 43.7613ZM143.408 12.22C140.516 15.3814 138.102 18.9574 135.332 22.244C135.472 21.6627 135.584 21.0627 135.692 20.452C136.312 16.984 137.014 14.2734 139.48 11.5774C141.389 9.49069 143.917 8.07469 146.138 6.35735C147.986 4.92802 149.848 3.27735 152.004 2.32135C151.448 3.40135 151.089 4.55202 150.785 5.86402C149.93 9.54935 148.458 12.9427 146.52 16.1854C144.806 19.052 142.314 21.0027 139.385 22.5147C138.293 23.08 137.073 23.456 135.902 23.904C139.034 20.576 142.308 16.748 144.053 12.5947C144.205 12.232 143.656 11.9494 143.408 12.22ZM175.906 29.6614C169.17 26.7254 162.5 25.404 155.922 25.2814C157.522 24.728 159.102 24.0854 160.744 23.6787C165.141 22.5894 169.642 23.2014 173.668 25.1974C176.825 26.764 179.206 29.392 181.653 31.8534C183.285 33.496 185.589 34.3467 186.898 36.2547C180.762 36.4014 174.57 36.704 168.614 34.9574C165.228 33.9627 162.117 31.948 159.214 29.9907C157.598 28.9014 156.185 27.5654 154.493 26.66C161.536 26.584 168.602 27.7587 175.562 30.48C176.034 30.664 176.37 29.8627 175.906 29.6614ZM59.0331 72.7427C60.8117 75.496 60.6784 78.6854 60.8704 81.8227C60.9824 83.6387 61.4144 85.3933 61.8664 87.144C57.6731 84.0067 54.3211 80.148 52.4144 75.144C51.5091 72.768 51.2651 70.2133 50.9211 67.7133C50.8731 67.3667 50.8264 67.0213 50.7784 66.6787C51.1304 67.2453 51.4731 67.82 51.8077 68.3947C54.0837 72.3053 55.5571 77.464 58.8157 80.6907C59.0011 80.876 59.3984 80.6907 59.2864 80.4173C57.2184 75.384 54.5291 70.332 51.6451 65.7253C51.4104 65.3493 51.1557 64.9573 50.8891 64.564C54.3477 66.3293 56.9424 69.508 59.0331 72.7427ZM48.9211 91.7147C48.9144 89.136 47.4117 87.0614 46.8384 84.6C45.7677 80.016 45.2091 75.4427 42.9491 71.2427C40.9611 67.5507 37.3931 64.928 34.2824 62.244C31.1997 59.5853 28.3224 56.8573 25.8437 53.7093C24.8557 51.6253 23.6864 49.7227 22.3157 48.044C22.0251 47.64 21.7224 47.2427 21.3984 46.8573C21.6837 47.012 21.9717 47.152 22.2557 47.3107C29.2637 51.248 35.7264 56.4573 43.1157 59.652C43.9384 60.008 44.7691 60.3267 45.6051 60.624C46.7384 61.4627 47.7384 62.4813 48.6411 63.6107C48.6544 65.808 49.5157 68.2053 49.8224 70.3373C50.2344 73.2013 51.0624 75.8347 52.3437 78.4213C54.605 82.9853 58.5371 86.5733 62.6624 89.428C63.1931 89.7947 63.8224 89.1933 63.6864 88.64C62.7584 84.8413 62.3184 81.2427 61.9864 77.3547C61.7664 74.78 60.7117 72.756 59.2731 70.6773C57.0144 67.4107 53.7797 63.7347 49.7037 62.916C49.3384 62.4467 48.9531 61.984 48.5464 61.54C55.7117 63.472 63.1904 63.372 70.4237 61.8227C70.4624 61.848 70.5051 61.872 70.5704 61.864C74.8171 61.356 78.8357 61.316 82.8571 61.732C82.9237 61.8333 83.0131 61.928 83.141 62.0027C84.9384 63.0587 86.797 63.668 88.3891 65.072C89.8744 66.3827 91.0611 68.056 92.3624 69.5387C94.5477 72.032 97.3624 73.7573 100.393 75.032C107.197 77.8987 115.174 76.964 122.348 76.8453C122.906 76.836 123.401 76.1573 123.036 75.6453C118.896 69.8413 113.812 63.408 106.986 60.6773C99.9544 57.8627 90.0664 57.052 82.989 60.1053C81.1024 59.8747 79.2011 59.78 77.3304 59.8787C80.2917 58.8573 83.1797 57.6253 85.9451 56.2C91.0531 53.5667 95.9171 50.38 100.798 47.2893C104.2 46.2467 107.578 45.2573 111.024 44.5133C115.761 45.5573 119.85 47.2627 124.368 49.2894C128.933 51.3387 133.409 52.3374 138.41 51.7494C140.098 51.5507 152.938 50.44 150.644 46.5854C149.402 44.4987 146.576 43.628 144.481 42.6867C140.525 40.9093 137.394 38.1787 133.068 37.1173C129.048 36.132 124.369 37.2187 120.462 38.2427C116.825 39.1974 113.07 40.6253 110.046 42.928C110.036 42.928 110.025 42.9267 110.014 42.9267C109.732 42.9254 109.529 43.0947 109.425 43.3134C108.054 43.6334 106.704 44.0133 105.372 44.4493C105.381 44.4427 105.39 44.436 105.401 44.4307C112.274 40.284 119.296 36.3667 126.642 33.116C134.932 29.448 143.54 27.1654 152.21 26.7373C152.249 26.9413 152.373 27.128 152.626 27.2067C155.522 28.1067 158.068 30.7467 160.612 32.38C163.358 34.1454 166.276 35.5334 169.409 36.444C175.378 38.1787 181.788 37.368 187.904 37.4214C188.276 37.4254 188.6 37.036 188.478 36.668C187.712 34.352 185.542 33.1107 183.649 31.7574C180.309 29.3694 178.052 26.0227 174.361 24.0107C167.06 20.028 159.709 22.308 152.618 25.3254C144.406 25.6654 136.349 27.788 128.497 30.92C130.322 29.4974 132.026 27.8987 133.634 26.2654C136.028 25.1934 138.613 24.5947 140.993 23.4467C143.242 22.3614 145.136 20.696 146.714 18.788C148.436 16.708 149.768 14.092 150.764 11.596C152.069 8.32669 152.272 4.13335 154.608 1.42002C155.176 0.761354 154.628 -0.130648 153.792 0.0160189C151.288 0.458685 149.218 1.95069 147.248 3.48535C144.797 5.39202 142.208 7.12135 139.806 9.08535C137.664 10.8374 136.028 13.044 135.049 15.6267C133.84 18.816 133.91 22.1773 132.481 25.34C129.696 28.1133 126.666 30.564 123.588 33.0107C112.472 38.0454 101.802 44.7907 91.7384 50.9333C82.8944 56.332 73.2851 60.2467 63.4584 61.036C65.6704 60.2867 67.7584 59.2 69.7171 57.8787C69.8877 57.904 70.0744 57.868 70.2451 57.7227C70.6171 57.408 70.9717 57.076 71.3131 56.7307C71.9931 56.2133 72.6611 55.6787 73.3091 55.1187C76.7624 52.824 80.8317 51.252 84.2664 48.9573C88.1357 46.372 91.7771 43.2374 93.8651 39.0094C96.1397 34.3987 95.9131 28.588 96.7824 23.6267C97.2371 21.0373 99.1704 18.2094 99.1317 15.6027C99.1237 15.0427 98.5624 14.5574 97.9984 14.74C94.9864 15.716 92.2344 18.4347 89.7877 20.38C86.2611 23.1814 83.7584 27.3013 81.6837 31.224C77.4597 39.2107 75.8304 49.4413 69.7597 56.3293C66.7197 58.5253 63.3651 60.22 59.6491 61.1853C53.7344 61.1587 47.7664 59.9333 41.8637 57.1493C34.6931 53.7667 28.3064 48.4973 21.3651 44.6373C19.0397 43.3453 16.5957 42.0733 14.0731 40.976C17.9931 40.82 21.8304 41.764 25.7397 42.3373C27.1064 42.5373 28.5104 42.5947 29.9157 42.568C30.9077 42.828 31.8931 43.124 32.8677 43.456C36.5051 46.752 40.2091 51.3373 44.8451 53.0733C49.2624 54.728 54.3464 54.9813 58.7624 53.1907C59.1837 53.0187 59.4571 52.5653 59.1944 52.1267C54.5611 44.4053 43.7704 40.8133 35.0811 42.908C34.6397 42.728 34.1957 42.552 33.7464 42.3853C33.7024 42.3573 33.6597 42.3267 33.6157 42.2987C33.9597 42.2573 34.3091 42.2267 34.6491 42.1787C36.3157 41.9467 38.0931 41.6347 39.8851 41.2147C44.5157 41.424 48.9797 41.0653 52.9904 38.5467C54.7464 37.444 56.3811 35.844 57.5597 34.1493C59.2077 31.78 60.0464 28.948 61.9357 26.748C62.4651 26.1307 61.9717 25.1387 61.1264 25.3573C52.1971 27.6627 45.8771 33.2613 39.3504 39.4947C39.2957 39.5467 39.2637 39.6013 39.2331 39.656C37.0971 40.2667 34.8864 40.736 32.5331 40.996C26.9424 41.616 21.1117 39.4947 15.5491 39.8347C18.5677 38.028 21.7504 36.904 23.8637 33.7907C26.4411 29.9947 27.7024 25.1693 29.3117 20.9187C29.5984 20.1627 28.5451 19.6733 28.0264 20.1707C24.5144 23.5413 21.2704 27.1693 17.8784 30.6587C15.1117 33.504 13.8904 36.7213 11.9344 40.104C8.18772 38.6653 4.29039 37.6933 0.347724 37.688C-0.0762762 37.688 -0.117608 38.26 0.251726 38.3947C5.93706 40.4613 11.5104 42.2133 16.9344 44.6453C21.5184 49.1667 24.1197 53.628 25.6011 59.9627C26.8824 65.4413 27.6597 71.1067 29.9011 76.3107C32.8744 83.212 39.6344 92.6187 48.2371 92.4C48.6077 92.3893 48.9211 92.0947 48.9211 91.7147Z" fill="white"/>
</svg>
