<svg width="189" height="93" viewBox="0 0 189 93" fill="none" xmlns="http://www.w3.org/2000/svg">
<path d="M151.821 84.652C155.775 80.3747 157.901 74.74 159.327 69.196C159.966 66.7147 160.471 64.1293 161.035 61.5613C158.962 68.4293 157.21 76.2373 150.531 80.0867C150.234 80.2587 149.921 79.8547 150.166 79.6133C153.819 75.9693 156.333 72.352 158.015 67.4467C159.155 64.1187 160.002 60.7133 161.174 57.404C156.926 61.88 151.502 65.2987 147.743 70.2533C145.01 73.856 144.325 78.368 143.455 82.6707C142.909 85.3733 141.261 88.272 141.003 91.0093C145.071 90.7267 149.198 87.488 151.821 84.652ZM173.069 36.5307C172.019 34.2667 170.423 32.6267 168.714 30.8627C166.39 28.4653 164.135 26.0053 161.794 23.628C162.915 26.8827 163.986 30.1387 165.774 33.1293C167.07 35.296 169.183 36.2973 171.199 37.4267C169.367 35.6067 167.727 33.5773 166.669 31.3147C166.53 31.0147 166.902 30.668 167.153 30.9413C169.535 33.5453 171.713 36.2667 174.146 38.8093C173.771 38.06 173.423 37.2973 173.069 36.5307ZM135.682 33.4973C138.779 35.3333 141.815 36.924 144.966 38.1867C143.219 36.6867 141.645 34.8987 140.038 33.3893C137.075 30.6107 133.186 28.6867 129.243 27.548C131.117 30.3787 132.299 33.5653 134.949 35.9973C137.287 38.1453 139.895 38.88 142.635 39.3053C139.746 38.0787 137.119 36.4053 135.221 34.0947C134.959 33.776 135.289 33.264 135.682 33.4973ZM131.059 52.1107C135.214 53.4867 139.913 53.152 143.89 51.364C146.965 49.9813 149.151 47.328 151.562 44.9907C147.827 46.5173 144.143 48.232 140.346 49.44C140.019 49.544 139.85 49.0813 140.121 48.9067C143.283 46.8747 146.789 45.5493 150.283 44.2053C150.465 44.136 150.654 44.056 150.839 43.9813C143.221 44.2493 135.671 45.188 131.059 52.1107ZM102.927 60.4973C96.414 58.9173 88.9927 59.5533 82.774 61.7107C76.434 63.9107 71.5393 69.9013 67.6767 75.2813C74.6687 75.448 81.8593 75.92 88.434 73.1387C91.9713 71.6413 94.5087 68.9667 96.922 66.0867C98.346 64.3867 99.8073 63.3267 101.431 62.336C99.9313 62.612 98.422 62.94 96.8873 63.348C90.334 65.0893 83.798 68.5413 77.046 69.3053C76.6807 69.3467 76.5407 68.7747 76.8593 68.6187C83.2327 65.4907 90.7447 63.504 97.5927 61.6973C99.298 61.2467 101.094 60.8267 102.927 60.4973ZM107.293 36.176C105.49 32.0693 103.354 28.14 100.534 24.64C99.0033 22.7413 97.154 21.248 95.1727 19.844C93.974 18.9947 92.826 17.8947 91.534 17.1373C91.702 17.552 91.8953 17.9573 92.0633 18.3387C92.75 19.9067 93.1647 21.4413 93.5087 23.1347C94.5847 28.4493 94.298 34.1027 96.714 39.0667C99.01 43.7827 104.303 47.048 108.553 49.7707C109.405 50.3173 110.322 50.8147 111.25 51.3133C110.739 50.7707 110.237 50.2267 109.749 49.6787C104.383 43.64 98.8793 35.6133 97.6273 27.4653C97.578 27.1413 98.0513 26.864 98.2087 27.2213C101.902 35.5693 106.853 45.0533 113.745 52.0227C110.966 47.068 109.426 41.0333 107.293 36.176ZM73.33 43.7613C72.33 43.6133 71.3233 43.4827 70.306 43.3907C63.098 42.744 56.978 44.3333 50.2487 46.6067C49.9313 46.7147 49.6327 46.2413 49.91 46.024C55.106 41.928 62.9633 41.6093 69.286 41.9333C71.5713 42.0507 73.902 42.3213 76.218 42.7307C70.386 40.072 64.2487 38.0827 57.738 38.22C53.6073 38.308 49.7673 40.844 46.41 42.9933C44.5153 44.2053 42.3727 44.92 40.434 46.068C36.6247 48.324 45.4567 49.68 46.6953 49.8333C50.1767 50.264 53.5033 50.7187 57.0113 50.144C62.8353 49.1893 67.7767 45.4453 73.33 43.7613ZM45.0967 12.22C47.9887 15.3813 50.402 18.9573 53.1727 22.244C53.0327 21.6627 52.9207 21.0627 52.8127 20.452C52.1927 16.984 51.49 14.2733 49.0247 11.5773C47.1153 9.49067 44.5873 8.07467 42.366 6.35734C40.518 4.92801 38.6567 3.27734 36.5007 2.32134C37.0567 3.40134 37.4153 4.55201 37.7193 5.86401C38.574 9.54934 40.046 12.9427 41.9847 16.1853C43.698 19.052 46.19 21.0027 49.1193 22.5147C50.2113 23.08 51.4313 23.456 52.602 23.904C49.47 20.576 46.1967 16.748 44.4513 12.5947C44.2993 12.232 44.8487 11.9493 45.0967 12.22ZM12.598 29.6613C19.334 26.7253 26.0047 25.404 32.582 25.2813C30.982 24.728 29.402 24.0853 27.7607 23.6787C23.3633 22.5893 18.862 23.2013 14.8367 25.1973C11.6794 26.764 9.29802 29.392 6.85135 31.8533C5.21934 33.496 2.91534 34.3467 1.606 36.2547C7.742 36.4013 13.934 36.704 19.89 34.9573C23.2767 33.9627 26.3873 31.948 29.29 29.9907C30.906 28.9013 32.3193 27.5653 34.0113 26.66C26.9687 26.584 19.902 27.7587 12.942 30.48C12.47 30.664 12.134 29.8627 12.598 29.6613ZM129.471 72.7427C127.693 75.496 127.826 78.6853 127.634 81.8227C127.522 83.6387 127.09 85.3933 126.638 87.144C130.831 84.0067 134.183 80.148 136.09 75.144C136.995 72.768 137.239 70.2133 137.583 67.7133C137.631 67.3667 137.678 67.0213 137.726 66.6787C137.374 67.2453 137.031 67.82 136.697 68.3947C134.421 72.3053 132.947 77.464 129.689 80.6907C129.503 80.876 129.106 80.6907 129.218 80.4173C131.286 75.384 133.975 70.332 136.859 65.7253C137.094 65.3493 137.349 64.9573 137.615 64.564C134.157 66.3293 131.562 69.508 129.471 72.7427ZM139.583 91.7147C139.59 89.136 141.093 87.0613 141.666 84.6C142.737 80.016 143.295 75.4427 145.555 71.2427C147.543 67.5507 151.111 64.928 154.222 62.244C157.305 59.5853 160.182 56.8573 162.661 53.7093C163.649 51.6253 164.818 49.7227 166.189 48.044C166.479 47.64 166.782 47.2427 167.106 46.8573C166.821 47.012 166.533 47.152 166.249 47.3107C159.241 51.248 152.778 56.4573 145.389 59.652C144.566 60.008 143.735 60.3267 142.899 60.624C141.766 61.4627 140.766 62.4813 139.863 63.6107C139.85 65.808 138.989 68.2053 138.682 70.3373C138.27 73.2013 137.442 75.8347 136.161 78.4213C133.899 82.9853 129.967 86.5733 125.842 89.428C125.311 89.7947 124.682 89.1933 124.818 88.64C125.746 84.8413 126.186 81.2427 126.518 77.3547C126.738 74.78 127.793 72.756 129.231 70.6773C131.49 67.4107 134.725 63.7347 138.801 62.916C139.166 62.4467 139.551 61.984 139.958 61.54C132.793 63.472 125.314 63.372 118.081 61.8227C118.042 61.848 117.999 61.872 117.934 61.864C113.687 61.356 109.669 61.316 105.647 61.732C105.581 61.8333 105.491 61.928 105.363 62.0027C103.566 63.0587 101.707 63.668 100.115 65.072C98.63 66.3827 97.4433 68.056 96.142 69.5387C93.9567 72.032 91.142 73.7573 88.1113 75.032C81.3073 77.8987 73.33 76.964 66.1567 76.8453C65.598 76.836 65.1033 76.1573 65.4687 75.6453C69.6087 69.8413 74.6927 63.408 81.518 60.6773C88.55 57.8627 98.438 57.052 105.515 60.1053C107.402 59.8747 109.303 59.78 111.174 59.8787C108.213 58.8573 105.325 57.6253 102.559 56.2C97.4513 53.5667 92.5873 50.38 87.706 47.2893C84.3047 46.2467 80.926 45.2573 77.4807 44.5133C72.7433 45.5573 68.654 47.2627 64.1367 49.2893C59.5713 51.3387 55.0953 52.3373 50.094 51.7493C48.406 51.5507 35.566 50.44 37.8607 46.5853C39.102 44.4987 41.9287 43.628 44.0233 42.6867C47.9793 40.9093 51.11 38.1787 55.4367 37.1173C59.4567 36.132 64.1353 37.2187 68.042 38.2427C71.6793 39.1973 75.434 40.6253 78.458 42.928C78.4687 42.928 78.4793 42.9267 78.49 42.9267C78.7727 42.9253 78.9753 43.0947 79.0793 43.3133C80.45 43.6333 81.8007 44.0133 83.1327 44.4493C83.1233 44.4427 83.114 44.436 83.1033 44.4307C76.23 40.284 69.2087 36.3667 61.862 33.116C53.5727 29.448 44.9647 27.1653 36.294 26.7373C36.2554 26.9413 36.1313 27.128 35.878 27.2067C32.982 28.1067 30.4367 30.7467 27.8927 32.38C25.146 34.1453 22.2287 35.5333 19.0954 36.444C13.126 38.1787 6.71667 37.368 0.600676 37.4213C0.228682 37.4253 -0.0953233 37.036 0.0260146 36.668C0.792677 34.352 2.962 33.1107 4.85533 31.7573C8.19534 29.3693 10.4527 26.0227 14.1433 24.0107C21.4447 20.028 28.7953 22.308 35.886 25.3253C44.098 25.6653 52.1553 27.788 60.0073 30.92C58.182 29.4973 56.478 27.8987 54.87 26.2653C52.4767 25.1933 49.8913 24.5947 47.5113 23.4467C45.262 22.3613 43.3687 20.696 41.79 18.788C40.0687 16.708 38.7367 14.092 37.7407 11.596C36.4353 8.32667 36.2327 4.13334 33.8967 1.42001C33.3287 0.761341 33.8767 -0.130661 34.7127 0.0160055C37.2167 0.458672 39.286 1.95067 41.2567 3.48534C43.7074 5.39201 46.2967 7.12134 48.698 9.08534C50.8407 10.8373 52.4767 13.044 53.4553 15.6267C54.6647 18.816 54.594 22.1773 56.0233 25.34C58.8087 28.1133 61.838 30.564 64.9167 33.0107C76.0327 38.0453 86.702 44.7907 96.766 50.9333C105.61 56.332 115.219 60.2467 125.046 61.036C122.834 60.2867 120.746 59.2 118.787 57.8787C118.617 57.904 118.43 57.868 118.259 57.7227C117.887 57.408 117.533 57.076 117.191 56.7307C116.511 56.2133 115.843 55.6787 115.195 55.1187C111.742 52.824 107.673 51.252 104.238 48.9573C100.369 46.372 96.7273 43.2373 94.6393 39.0093C92.3647 34.3987 92.5913 28.588 91.722 23.6267C91.2673 21.0373 89.334 18.2093 89.3727 15.6027C89.3807 15.0427 89.942 14.5573 90.506 14.74C93.518 15.716 96.27 18.4347 98.7167 20.38C102.243 23.1813 104.746 27.3013 106.821 31.224C111.045 39.2107 112.674 49.4413 118.745 56.3293C121.785 58.5253 125.139 60.22 128.855 61.1853C134.77 61.1587 140.738 59.9333 146.641 57.1493C153.811 53.7667 160.198 48.4973 167.139 44.6373C169.465 43.3453 171.909 42.0733 174.431 40.976C170.511 40.82 166.674 41.764 162.765 42.3373C161.398 42.5373 159.994 42.5947 158.589 42.568C157.597 42.828 156.611 43.124 155.637 43.456C151.999 46.752 148.295 51.3373 143.659 53.0733C139.242 54.728 134.158 54.9813 129.742 53.1907C129.321 53.0187 129.047 52.5653 129.31 52.1267C133.943 44.4053 144.734 40.8133 153.423 42.908C153.865 42.728 154.309 42.552 154.758 42.3853C154.802 42.3573 154.845 42.3267 154.889 42.2987C154.545 42.2573 154.195 42.2267 153.855 42.1787C152.189 41.9467 150.411 41.6347 148.619 41.2147C143.989 41.424 139.525 41.0653 135.514 38.5467C133.758 37.444 132.123 35.844 130.945 34.1493C129.297 31.78 128.458 28.948 126.569 26.748C126.039 26.1307 126.533 25.1387 127.378 25.3573C136.307 27.6627 142.627 33.2613 149.154 39.4947C149.209 39.5467 149.241 39.6013 149.271 39.656C151.407 40.2667 153.618 40.736 155.971 40.996C161.562 41.616 167.393 39.4947 172.955 39.8347C169.937 38.028 166.754 36.904 164.641 33.7907C162.063 29.9947 160.802 25.1693 159.193 20.9187C158.906 20.1627 159.959 19.6733 160.478 20.1707C163.99 23.5413 167.234 27.1693 170.626 30.6587C173.393 33.504 174.614 36.7213 176.57 40.104C180.317 38.6653 184.214 37.6933 188.157 37.688C188.581 37.688 188.622 38.26 188.253 38.3947C182.567 40.4613 176.994 42.2133 171.57 44.6453C166.986 49.1667 164.385 53.628 162.903 59.9627C161.622 65.4413 160.845 71.1067 158.603 76.3107C155.63 83.212 148.87 92.6187 140.267 92.4C139.897 92.3893 139.583 92.0947 139.583 91.7147Z" fill="#B9C6BC"/>
</svg>
