<svg width="30" height="30" viewBox="0 0 30 30" fill="none" xmlns="http://www.w3.org/2000/svg">
<g clip-path="url(#clip0)">
<path d="M23.7094 18.584C23.0952 17.9445 22.3544 17.6026 21.5692 17.6026C20.7904 17.6026 20.0433 17.9382 19.4038 18.5777L17.403 20.5722C17.2384 20.4835 17.0737 20.4012 16.9154 20.3189C16.6875 20.2049 16.4722 20.0973 16.2886 19.9833C14.4144 18.793 12.7112 17.2417 11.0776 15.2345C10.2861 14.2341 9.75428 13.392 9.36805 12.5372C9.88725 12.0624 10.3685 11.5685 10.837 11.0936C11.0143 10.9163 11.1916 10.7327 11.3689 10.5554C12.6985 9.22576 12.6985 7.50353 11.3689 6.17388L9.64031 4.44532C9.44403 4.24904 9.24142 4.04642 9.05146 3.84381C8.67156 3.45124 8.27267 3.04601 7.8611 2.66611C7.24693 2.05827 6.51245 1.73535 5.73998 1.73535C4.96752 1.73535 4.22038 2.05827 3.5872 2.66611C3.58087 2.67244 3.58087 2.67244 3.57454 2.67878L1.42176 4.85055C0.611304 5.66101 0.14909 6.64875 0.0477825 7.79479C-0.104178 9.64365 0.440348 11.3659 0.85824 12.4929C1.88398 15.2599 3.41625 17.8242 5.70199 20.5722C8.47528 23.8836 11.8121 26.4986 15.6238 28.3412C17.0801 29.0313 19.0239 29.8481 21.1957 29.9874C21.3286 29.9937 21.4679 30.0001 21.5946 30.0001C23.0572 30.0001 24.2855 29.4745 25.248 28.4298C25.2543 28.4171 25.267 28.4108 25.2733 28.3982C25.6025 27.9993 25.9824 27.6383 26.3813 27.2521C26.6536 26.9925 26.9322 26.7203 27.2045 26.4353C27.8313 25.7832 28.1605 25.0234 28.1605 24.2446C28.1605 23.4594 27.825 22.706 27.1855 22.0728L23.7094 18.584ZM25.9761 25.2513C25.9698 25.2513 25.9698 25.2576 25.9761 25.2513C25.7292 25.5172 25.4759 25.7578 25.2036 26.0238C24.7921 26.4163 24.3742 26.8279 23.9816 27.2901C23.3421 27.9739 22.5886 28.2968 21.6009 28.2968C21.5059 28.2968 21.4046 28.2968 21.3096 28.2905C19.4291 28.1702 17.6816 27.4357 16.3709 26.8089C12.7872 25.074 9.64031 22.611 7.02532 19.4894C4.86621 16.8871 3.42258 14.4811 2.46649 11.8977C1.87764 10.3211 1.66237 9.09279 1.75734 7.93409C1.82066 7.19328 2.10559 6.5791 2.63112 6.05357L4.79023 3.89446C5.10048 3.6032 5.42973 3.44491 5.75265 3.44491C6.15154 3.44491 6.47446 3.68552 6.67708 3.88813C6.68341 3.89446 6.68974 3.90079 6.69607 3.90713C7.0823 4.26803 7.44954 4.6416 7.83578 5.0405C8.03206 5.24312 8.23467 5.44573 8.43729 5.65468L10.1658 7.38323C10.837 8.05439 10.837 8.6749 10.1658 9.34606C9.98222 9.52968 9.80494 9.7133 9.62132 9.89058C9.08945 10.4351 8.58292 10.9416 8.03206 11.4355C8.0194 11.4482 8.00673 11.4545 8.0004 11.4672C7.45588 12.0117 7.55718 12.5436 7.67115 12.9045C7.67748 12.9235 7.68382 12.9425 7.69015 12.9615C8.1397 14.0505 8.77287 15.0763 9.73529 16.2983L9.74162 16.3046C11.4892 18.4574 13.3317 20.1353 15.3642 21.4206C15.6238 21.5852 15.8897 21.7182 16.143 21.8448C16.3709 21.9588 16.5862 22.0665 16.7698 22.1804C16.7951 22.1931 16.8205 22.2121 16.8458 22.2247C17.0611 22.3324 17.2637 22.383 17.4726 22.383C17.9982 22.383 18.3274 22.0538 18.435 21.9461L20.6005 19.7807C20.8158 19.5654 21.1577 19.3058 21.5566 19.3058C21.9491 19.3058 22.2721 19.5528 22.4683 19.768C22.4747 19.7744 22.4747 19.7744 22.481 19.7807L25.9698 23.2695C26.6219 23.9153 26.6219 24.5801 25.9761 25.2513Z" fill="white"/>
<path d="M16.2126 7.13611C17.8715 7.4147 19.3785 8.19983 20.5815 9.40286C21.7845 10.6059 22.5633 12.1128 22.8483 13.7717C22.9179 14.1896 23.2788 14.4809 23.6904 14.4809C23.741 14.4809 23.7853 14.4746 23.836 14.4682C24.3045 14.3922 24.6148 13.949 24.5388 13.4805C24.1969 11.4733 23.2472 9.64346 21.7972 8.1935C20.3472 6.74354 18.5174 5.79379 16.5102 5.45187C16.0417 5.37589 15.6048 5.68615 15.5225 6.14836C15.4402 6.61058 15.7441 7.06013 16.2126 7.13611Z" fill="white"/>
<path d="M29.9652 13.2336C29.4016 9.92848 27.844 6.92092 25.4507 4.52754C23.0573 2.13415 20.0497 0.576553 16.7446 0.0130316C16.2823 -0.0692806 15.8455 0.247305 15.7631 0.709519C15.6872 1.17807 15.9974 1.61495 16.466 1.69727C19.4165 2.19747 22.1075 3.59678 24.2476 5.73056C26.3877 7.87068 27.7807 10.5617 28.2809 13.5122C28.3506 13.9301 28.7115 14.2214 29.123 14.2214C29.1737 14.2214 29.218 14.2151 29.2687 14.2087C29.7309 14.1391 30.0475 13.6959 29.9652 13.2336Z" fill="white"/>
</g>
<defs>
<clipPath id="clip0">
<rect width="30" height="30" fill="white"/>
</clipPath>
</defs>
</svg>
