<svg width="48" height="44" viewBox="0 0 48 44" fill="none" xmlns="http://www.w3.org/2000/svg">
<g clip-path="url(#clip0_583_857)">
<path d="M44.6535 25.9928L42.9675 22.3054C43.4644 21.2594 43.8586 20.1649 43.8586 18.2812C43.8586 16.0309 43.2709 14.8436 42.751 13.7966C42.2845 12.8555 41.8914 12.0029 41.8389 10.3844L45.8289 6.39847C46.5321 5.69235 46.9186 4.75872 46.9186 3.77051C46.9186 1.69159 45.1894 0 43.0658 0C42.2809 0 41.5119 0.335661 40.7988 0.980161C40.0855 0.335661 39.3166 0 38.5317 0C36.4081 0 34.6789 1.69159 34.6789 3.77051C34.6789 4.75864 35.0654 5.69235 35.7706 6.40112L39.8036 10.4295C39.87 12.4188 40.3988 13.5575 40.8864 14.5393C41.3864 15.548 41.8187 16.4183 41.8187 18.2813C41.8187 18.7818 41.7817 19.2063 41.7251 19.588L40.484 16.8736C39.8485 15.5078 38.3704 14.625 36.7189 14.625H16.3196C14.6681 14.625 13.19 15.5078 12.5505 16.8799L8.74035 25.2144C8.52472 24.7317 8.25985 24.3379 8.00846 23.9719C7.52232 23.2657 7.13993 22.707 7.13993 21.4805C7.13993 20.254 7.52242 19.6952 8.00846 18.9891C8.51287 18.2555 9.05485 17.4012 9.14483 15.9239L13.1899 11.8828C13.8931 11.1766 14.2796 10.243 14.2796 9.2548C14.2796 7.17588 12.5505 5.48429 10.4268 5.48429C9.64197 5.48429 8.87298 5.81995 8.15983 6.46445C7.44668 5.82004 6.67769 5.48438 5.89283 5.48438C3.76926 5.48438 2.04004 7.17596 2.04004 9.25488C2.04004 10.243 2.42654 11.1767 3.13175 11.8855L7.11296 15.8621C7.0466 16.8531 6.70877 17.395 6.2713 18.0304C5.72148 18.8302 5.09993 19.7362 5.09993 21.4804C5.09993 23.2246 5.72148 24.1306 6.2713 24.9304C6.68094 25.5269 7.00003 26.0345 7.0968 26.904C6.4963 27.5409 6.11993 28.3528 6.11993 29.25V36.5624C6.11993 38.5789 7.95071 40.2187 10.1998 40.2187C10.1998 42.2352 12.0306 43.875 14.2797 43.875H16.3196C18.5687 43.875 20.3995 42.2353 20.3995 40.2187H32.6391C32.639 42.2353 34.4698 43.875 36.7189 43.875H38.7588C41.0079 43.875 42.8387 42.2353 42.8387 40.2187C45.0878 40.2187 46.9186 38.579 46.9186 36.5624V29.25C46.9186 27.8208 45.99 26.5938 44.6535 25.9928ZM4.65176 10.667C4.28323 10.2957 4.08003 9.79398 4.08003 9.25488C4.08003 8.18372 4.89282 7.31247 5.89283 7.31247C6.16774 7.31247 6.70361 7.60434 7.30928 8.42563C7.68775 8.93799 8.63201 8.93799 9.01058 8.42563C9.61615 7.60443 10.1521 7.31247 10.427 7.31247C11.4269 7.31247 12.2397 8.18372 12.2397 9.25488C12.2397 9.79407 12.0365 10.2957 11.67 10.6644L8.15993 14.1707L4.65176 10.667ZM40.7988 8.68631L37.2906 5.18273C36.9221 4.81134 36.7189 4.30969 36.7189 3.77051C36.7189 2.69934 37.5317 1.8281 38.5317 1.8281C38.8066 1.8281 39.3425 2.11997 39.9481 2.94125C40.3266 3.45361 41.2709 3.45361 41.6494 2.94125C42.255 2.12005 42.791 1.8281 43.0659 1.8281C44.0659 1.8281 44.8787 2.69934 44.8787 3.77051C44.8787 4.30969 44.6755 4.81134 44.309 5.17999L40.7988 8.68631ZM14.435 17.5787C14.7537 16.895 15.4948 16.4531 16.3195 16.4531H36.7189C37.5436 16.4531 38.2847 16.895 38.5995 17.5725L42.2661 25.5938H10.7719L14.435 17.5787ZM16.3196 42.0469H14.2797C13.1542 42.0469 12.2398 41.2266 12.2398 40.2188H18.3596C18.3595 41.2266 17.4452 42.0469 16.3196 42.0469ZM38.7588 42.0469H36.7189C35.5933 42.0469 34.679 41.2266 34.679 40.2188H40.7988C40.7988 41.2266 39.8844 42.0469 38.7588 42.0469ZM44.8786 36.5625C44.8786 37.5703 43.9641 38.3906 42.8387 38.3906H41.8187H33.659H19.3795H11.2198H10.1998C9.07426 38.3906 8.15993 37.5703 8.15993 36.5625V29.2501C8.15993 28.2423 9.07436 27.422 10.1998 27.422H42.8387C43.9642 27.422 44.8786 28.2423 44.8786 29.2501V36.5625V36.5625Z" fill="#4C4C4C"/>
<path d="M14.2801 29.25C12.031 29.25 10.2002 30.8897 10.2002 32.9063C10.2002 34.9228 12.031 36.5626 14.2801 36.5626C16.5292 36.5626 18.36 34.9227 18.36 32.9063C18.36 30.8898 16.5292 29.25 14.2801 29.25ZM14.2801 34.7344C13.1546 34.7344 12.2402 33.914 12.2402 32.9063C12.2402 31.8985 13.1546 31.0782 14.2801 31.0782C15.4057 31.0782 16.32 31.8985 16.32 32.9063C16.3201 33.914 15.4057 34.7344 14.2801 34.7344Z" fill="#4C4C4C"/>
<path d="M38.7586 29.25C36.5095 29.25 34.6787 30.8897 34.6787 32.9063C34.6787 34.9228 36.5095 36.5626 38.7586 36.5626C41.0077 36.5626 42.8385 34.9227 42.8385 32.9063C42.8385 30.8898 41.0077 29.25 38.7586 29.25ZM38.7586 34.7344C37.6331 34.7344 36.7187 33.914 36.7187 32.9063C36.7187 31.8985 37.6331 31.0782 38.7586 31.0782C39.8842 31.0782 40.7985 31.8985 40.7985 32.9063C40.7986 33.914 39.8842 34.7344 38.7586 34.7344Z" fill="#4C4C4C"/>
<path d="M31.6191 31.0781H21.4194C20.8556 31.0781 20.3994 31.487 20.3994 31.9922C20.3994 32.4975 20.8556 32.9063 21.4194 32.9063H31.6191C32.1829 32.9063 32.6391 32.4975 32.6391 31.9922C32.639 31.487 32.1829 31.0781 31.6191 31.0781Z" fill="#4C4C4C"/>
<path d="M31.6191 34.7344H21.4194C20.8556 34.7344 20.3994 35.1432 20.3994 35.6485C20.3994 36.1537 20.8556 36.5626 21.4194 36.5626H31.6191C32.1829 36.5626 32.6391 36.1537 32.6391 35.6485C32.639 35.1432 32.1829 34.7344 31.6191 34.7344Z" fill="#4C4C4C"/>
</g>
<defs>
<clipPath id="clip0_583_857">
<rect width="48.9583" height="43.875" fill="white"/>
</clipPath>
</defs>
</svg>
