<svg width="48" height="48" viewBox="0 0 48 48" fill="none" xmlns="http://www.w3.org/2000/svg">
<path d="M45 46H44V24C44 15.1986 38.2611 7.51528 29.9266 4.93406C29.9744 4.67016 30 4.39978 30 4.125C30 1.85062 28.3057 0 26.2227 0C25.455 0 24.7002 0.367219 24 1.07325C23.2998 0.367219 22.5449 0 21.7774 0C19.6944 0 18 1.85062 18 4.125C18 4.39978 18.0255 4.67016 18.0734 4.93406C9.73897 7.51528 4.00006 15.1986 4.00006 24V46H3.00003C2.44728 46 2 46.4473 2 47.0001C2 47.5527 2.44728 48 3.00003 48H45C45.5528 48 46.0001 47.5527 46.0001 47C46.0001 46.4473 45.5528 46 45 46ZM28.9336 7.00003C28.9962 6.92972 29.0424 6.84741 29.0997 6.77325C36.4131 8.93081 41.5484 15.4347 41.9588 23.0226C35.2172 18.1412 30.244 12.1489 27.5796 8.50875L28.9336 7.00003ZM21.7774 1.99997C22.046 1.99997 22.5703 2.31928 23.1661 3.21872C23.5372 3.77925 24.463 3.77925 24.8341 3.21872C25.4298 2.31928 25.9542 1.99997 26.2228 1.99997C27.2033 1.99997 28.0002 2.95312 28.0002 4.125C28.0002 4.71487 27.8009 5.26369 27.4425 5.667L24 9.50297L20.5605 5.67C20.1992 5.26378 20 4.71487 20 4.12509C20 2.95312 20.7969 1.99997 21.7774 1.99997ZM18.9008 6.77306C18.9589 6.84834 19.0059 6.9315 19.0693 7.00294L20.4207 8.50866C17.7555 12.1504 12.7809 18.1422 6.04128 23.0224C6.45153 15.4343 11.5871 8.93063 18.9008 6.77306ZM6.00003 46V29.7857C7.62941 33.8803 9.73681 40.2299 9.96425 46H6.00003V46ZM11.9701 46C11.6617 37.4974 7.56838 28.1083 6.27444 25.3438C13.5103 20.3432 18.8546 13.9815 21.7853 10.0294L23.2558 11.668C23.4453 11.879 23.7158 12.0001 24 12.0001C24.2842 12.0001 24.5548 11.879 24.7441 11.668L26.2155 10.0286C29.1447 13.9806 34.4881 20.3415 41.7255 25.3438C40.4316 28.1083 36.3383 37.4974 36.0298 46H11.9701V46ZM42 46H38.0358C38.2632 40.2299 40.3707 33.8803 42 29.7857V46Z" fill="#4C4C4C"/>
</svg>
