<svg width="110" height="110" viewBox="0 0 110 110" fill="none" xmlns="http://www.w3.org/2000/svg">
<path d="M80.7202 29.3C75.5825 12.3666 59.8385 0 41.25 0C18.5056 0 0 18.5056 0 41.25C0 59.4406 11.984 75.4594 29.28 80.7007C34.4178 97.6342 50.1615 110 68.75 110C91.4944 110 110 91.4944 110 68.75C110 50.5671 98.0132 34.5372 80.7202 29.3ZM4.58326 41.25C4.58326 21.0323 21.0323 4.58326 41.25 4.58326C61.4677 4.58326 77.9167 21.0323 77.9167 41.25C77.9167 60.9361 62.3098 77.0032 42.825 77.837C42.3126 76.3795 41.9225 74.87 41.6608 73.3126C59.1611 73.0894 73.3335 58.8023 73.3335 41.25C73.3335 23.5589 58.9411 9.16674 41.2502 9.16674C23.5593 9.16674 9.16674 23.5589 9.16674 41.25C9.16674 53.7417 16.3677 64.8998 27.5733 70.1955C27.636 71.9836 27.8124 73.7397 28.0964 75.4639C14.0879 70.0816 4.58326 56.5237 4.58326 41.25ZM82.3163 44.874C90.8578 49.7224 96.25 58.7479 96.25 68.75C96.25 83.9143 83.9143 96.25 68.75 96.25C58.5206 96.25 49.5962 90.6252 44.8592 82.317C64.7202 80.5838 80.5759 64.7331 82.3163 44.874ZM41.25 68.75C41.25 53.5857 53.5857 41.25 68.75 41.25C68.75 56.4143 56.4143 68.75 41.25 68.75ZM27.6835 65.1273C19.1385 60.2813 13.75 51.2604 13.75 41.25C13.75 26.0857 26.0857 13.75 41.25 13.75C51.4794 13.75 60.4037 19.3748 65.1408 27.683C45.2792 29.4162 29.4231 45.2678 27.6835 65.1273ZM68.75 105.417C48.5323 105.417 32.0833 88.9677 32.0833 68.75C32.0833 49.0639 47.6902 32.9968 67.175 32.163C67.6874 33.6205 68.0775 35.13 68.3392 36.6874C50.8391 36.9106 36.6667 51.1977 36.6667 68.75C36.6667 86.4411 51.0591 100.833 68.75 100.833C86.4409 100.833 100.833 86.4411 100.833 68.75C100.833 56.2676 93.6289 45.0957 82.4267 39.8017C82.3644 38.0134 82.1872 36.257 81.903 34.5331C95.9093 39.9154 105.417 53.4811 105.417 68.75C105.417 88.9677 88.9677 105.417 68.75 105.417Z" fill="white"/>
</svg>
